<?xml version="1.0" encoding="UTF-8"?>
<svg id="Layer_1" data-name="Layer 1" xmlns="http://www.w3.org/2000/svg" xmlns:xlink="http://www.w3.org/1999/xlink" viewBox="0 0 1080 1080">
  <defs>
    <style>
      .cls-1 {
        fill: #fab216;
      }

      .cls-2 {
        filter: url(#drop-shadow-1);
      }

      .cls-2, .cls-3 {
        fill: none;
      }

      .cls-4 {
        fill: #999;
      }

      .cls-5 {
        fill: #515151;
      }

      .cls-6 {
        fill: #ed3162;
      }
    </style>
    <filter id="drop-shadow-1" filterUnits="userSpaceOnUse">
      <feOffset dx="7" dy="7"/>
      <feGaussianBlur result="blur" stdDeviation="15"/>
      <feFlood flood-color="#000" flood-opacity=".75"/>
      <feComposite in2="blur" operator="in"/>
      <feComposite in="SourceGraphic"/>
    </filter>
  </defs>
  <rect class="cls-3" width="1080" height="1080"/>
  <g class="cls-2">
    <g>
      <path class="cls-4" d="m555.01,443.12c10.6,5.46,17.95,16.55,17.95,29.34,0,18.23-14.74,32.97-32.99,32.97s-32.92-14.75-32.92-32.97c0-12.79,7.28-23.88,17.95-29.35V166.59c-80.67,169.89-234.71,274.06-234.71,418.29,0,92.07,40.11,162.88,101.87,204.88v270.18h295.7v-270.18c61.79-42.01,101.89-112.81,101.89-204.88,0-144.22-154.06-248.39-234.74-418.26v276.51Zm33.07,145.98c0,26.6-21.52,48.13-48.11,48.13s-48.08-21.53-48.08-48.13,21.49-48.11,48.08-48.11,48.11,21.54,48.11,48.11Z"/>
      <path class="cls-5" d="m555.01,443.12c10.6,5.46,17.95,16.55,17.95,29.34,0,18.23-14.74,32.97-32.99,32.97v35.57c26.59,0,48.11,21.54,48.11,48.11s-21.52,48.13-48.11,48.13v422.7h147.89v-270.18c61.79-42.01,101.89-112.81,101.89-204.88,0-144.22-154.06-248.39-234.74-418.26v276.51Z"/>
    </g>
    <path class="cls-4" d="m672.3,804.38h-264.57c-22.04,0-40.12,22.38-40.12,49.74s18.08,49.76,40.12,49.76h264.57c22.09,0,40.1-22.38,40.1-49.76s-18-49.74-40.1-49.74Z"/>
    <path class="cls-5" d="m407.73,903.88h264.57c22.09,0,40.1-22.38,40.1-49.75h-344.78c0,27.37,18.08,49.75,40.12,49.75Z"/>
    <rect class="cls-1" x="58.15" y="56.55" width="963.67" height="21.9"/>
    <path class="cls-1" d="m539.98,56.55c-275.57,0-500.02,219.33-503.36,490.15h21.88c3.37-258.74,218.01-468.25,481.47-468.25s478.18,209.51,481.45,468.25h21.92c-3.31-270.82-227.78-490.15-503.37-490.15Z"/>
    <g>
      <path class="cls-6" d="m47.42,499.27c-26.2,0-47.42,21.23-47.42,47.43s21.22,47.44,47.42,47.44,47.4-21.24,47.4-47.44-21.22-47.43-47.4-47.43Z"/>
      <path class="cls-6" d="m1032.59,499.27c-26.19,0-47.43,21.23-47.43,47.43s21.24,47.44,47.43,47.44,47.41-21.24,47.41-47.44-21.24-47.43-47.41-47.43Z"/>
    </g>
    <path class="cls-6" d="m47.42,20.07C21.22,20.07,0,41.3,0,67.5s21.22,47.45,47.42,47.45,47.4-21.26,47.4-47.45-21.22-47.43-47.4-47.43Z"/>
    <path class="cls-6" d="m1032.59,20.07c-26.19,0-47.43,21.23-47.43,47.43s21.24,47.45,47.43,47.45,47.41-21.26,47.41-47.45-21.24-47.43-47.41-47.43Z"/>
    <path class="cls-6" d="m539.98,20.07c-26.16,0-47.45,21.23-47.45,47.43s21.29,47.45,47.45,47.45,47.48-21.26,47.48-47.45-21.24-47.43-47.48-47.43Z"/>
  </g>
</svg>