<?xml version="1.0" encoding="UTF-8"?>
<svg id="Layer_1" data-name="Layer 1" xmlns="http://www.w3.org/2000/svg" viewBox="0 0 1080 540">
  <defs>
    <style>
      .cls-1 {
        fill: none;
      }

      .cls-2 {
        fill: #652d90;
      }
    </style>
  </defs>
  <rect class="cls-1" width="1080" height="540"/>
  <g>
    <g>
      <path class="cls-2" d="m0,120.12c0-8.97,3.16-16.61,9.48-22.93,6.32-6.23,13.92-9.35,22.8-9.35h30.48c14.6,0,27.02,5.12,37.27,15.37,10.24,10.25,15.37,22.63,15.37,37.14,0,16.4-6.28,29.84-18.83,40.34,14.52,11.1,21.78,25.79,21.78,44.06,0,15.29-5.42,28.35-16.27,39.19-10.84,10.84-23.95,16.26-39.32,16.26h-30.48c-8.88,0-16.48-3.16-22.8-9.48-6.32-6.32-9.48-13.92-9.48-22.8v-127.81Zm23.69,49.18l39.06-.13c8.02,0,14.86-2.77,20.49-8.32,5.63-5.63,8.45-12.47,8.45-20.49s-2.82-14.73-8.45-20.36c-5.64-5.72-12.47-8.58-20.49-8.58h-30.48c-2.39,0-4.44.85-6.14,2.56-1.62,1.71-2.44,3.76-2.44,6.15v49.18Zm39.06,87.22c8.79,0,16.31-3.08,22.54-9.22,6.15-6.23,9.22-13.75,9.22-22.54s-3.07-16.31-9.22-22.54c-6.23-6.23-13.75-9.35-22.54-9.35H23.69v55.07c0,2.39.81,4.44,2.44,6.15,1.71,1.62,3.75,2.44,6.14,2.44h30.48Z"/>
      <path class="cls-2" d="m209.94,139.58h1.1c9.45,10.73,14.17,16.7,14.17,17.89-2.48,10.27-3.72,19.04-3.72,26.28,0,33.94,14.72,58.16,44.17,72.65,10.64,3.85,21,5.78,31.1,5.78h10.05l5.23-.55c5.05,5.69,9.77,11.47,14.17,17.34v.55c-9.82,2.11-18.21,3.16-25.18,3.16h-6.33c-30.92,0-56.37-13.35-76.37-40.04-11.56-16.97-17.34-35.36-17.34-55.18v-6.33c0-13.12,2.98-26.97,8.94-41.56Zm26.83-36.33c56.6,67.79,99.95,120.22,130.03,157.28v.55l-2.61,1.65c-76.6-92.01-119.94-144.48-130.03-157.42v-.55l2.61-1.52Zm62.61-17.89c36.51,0,64.58,15.96,84.21,47.89,8.44,15.23,12.66,31.19,12.66,47.89v4.13c0,14.22-2.98,28.62-8.94,43.21h-1.1l-14.72-17.34c2.48-9.81,3.72-18.57,3.72-26.28v-5.37c0-27.06-12.98-48.8-38.94-65.22-11.65-5.59-23.94-8.4-36.88-8.4-8.35.37-13.07.74-14.17,1.1l-14.17-17.89c8.26-2.48,17.71-3.72,28.35-3.72Z"/>
      <path class="cls-2" d="m575.99,244.86c0-10.07-3.58-18.7-10.76-25.87-6.48-6.57-14.26-10.12-23.31-10.63h-41.75v60.19c0,3.25-1.11,5.98-3.33,8.2-2.31,2.3-5.08,3.46-8.32,3.46h-.26c-3.25,0-5.98-1.15-8.2-3.46-2.3-2.22-3.46-4.95-3.46-8.2v-134.6c0-12.72,4.48-23.57,13.45-32.53s19.94-13.58,32.66-13.58h16.65c16.65,0,30.82,5.89,42.52,17.68,11.78,11.78,17.68,26,17.68,42.65s-5.89,30.74-17.68,42.52c-2.13,2.14-4.31,4.06-6.53,5.76,2.31,1.8,4.53,3.76,6.66,5.89,11.69,11.7,17.55,25.87,17.55,42.52v23.69c0,3.25-1.16,5.98-3.46,8.2-2.3,2.3-5.04,3.46-8.2,3.46h-.26c-3.16,0-5.89-1.15-8.19-3.46-2.3-2.22-3.46-4.95-3.46-8.2v-23.69Zm-36.63-60.19c10.07,0,18.69-3.54,25.87-10.63,7.18-7.17,10.76-15.79,10.76-25.87s-3.58-18.83-10.76-26c-7.18-7.09-15.8-10.63-25.87-10.63h-14.73c-7.43,0-13.32,2.14-17.68,6.4-3.41,3.33-5.55,7.3-6.4,11.91-.26,1.2-.38,2.94-.38,5.25v49.56h39.19Z"/>
      <path class="cls-2" d="m839.97,268.55c0,3.25-1.15,5.98-3.46,8.2-2.3,2.3-5.04,3.46-8.19,3.46h-.39c-3.16,0-5.89-1.15-8.19-3.46-2.3-2.22-3.46-4.95-3.46-8.2v-60.96h-77.49v60.96c0,3.25-1.15,5.98-3.46,8.2-2.3,2.3-5.04,3.46-8.19,3.46h-.39c-3.16,0-5.89-1.15-8.19-3.46-2.3-2.22-3.46-4.95-3.46-8.2v-118.34c0-17.25,6.1-31.98,18.32-44.18,12.21-12.12,26.9-18.19,44.06-18.19s31.98,6.06,44.18,18.19c12.21,12.21,18.32,26.94,18.32,44.18v118.34Zm-23.69-84.53v-33.81c0-10.67-3.76-19.81-11.27-27.41-7.6-7.6-16.77-11.4-27.53-11.4s-19.81,3.8-27.41,11.4c-7.51,7.6-11.27,16.73-11.27,27.41v33.81h77.49Z"/>
      <path class="cls-2" d="m966.01,87.84c3.16,0,5.89,1.11,8.19,3.33,2.31,2.3,3.46,5.08,3.46,8.32v72.75h78.64v-72.75c0-3.25,1.15-6.02,3.45-8.32,2.31-2.22,5.04-3.33,8.2-3.33h.38c3.16,0,5.89,1.11,8.2,3.33,2.3,2.3,3.46,5.08,3.46,8.32v169.06c0,3.25-1.16,5.98-3.46,8.2-2.3,2.3-5.04,3.46-8.2,3.46h-.38c-3.16,0-5.89-1.15-8.2-3.46-2.3-2.22-3.45-4.95-3.45-8.2v-72.75h-78.64v72.75c0,3.25-1.15,5.98-3.46,8.2-2.3,2.3-5.04,3.46-8.19,3.46h-.39c-3.16,0-5.89-1.15-8.19-3.46-2.3-2.22-3.46-4.95-3.46-8.2V99.5c0-3.25,1.16-6.02,3.46-8.32,2.3-2.22,5.04-3.33,8.19-3.33h.39Z"/>
    </g>
    <g>
      <path class="cls-2" d="m78.72,358.43c-4.76,0-8.82,1.68-12.17,5.03-3.35,3.35-5.03,7.41-5.03,12.17,0,5.78,2.62,10.18,7.87,13.19,2.14,1.21,8.16,3.26,18.07,6.12,7.97,2.38,13.75,5.2,17.34,8.45,5.25,4.76,7.87,11.54,7.87,20.33s-3.04,15.84-9.11,21.86c-6.02,6.02-13.29,9.04-21.79,9.04h-27.77c-1.8,0-3.35-.66-4.66-1.97s-1.97-2.87-1.97-4.67v-.44c0-1.8.66-3.35,1.97-4.66,1.31-1.31,2.87-1.97,4.66-1.97h28.5c4.71,0,8.77-1.68,12.17-5.03,3.35-3.35,5.03-7.41,5.03-12.17,0-5.68-2.62-10.1-7.87-13.26-2.28-1.36-8.31-3.57-18.07-6.63-8.02-2.62-13.8-5.54-17.35-8.75-5.25-4.71-7.87-11.2-7.87-19.46s3.01-15.84,9.04-21.86c6.02-6.02,13.31-9.04,21.86-9.04h19.6c1.85,0,3.43.66,4.74,1.97,1.26,1.27,1.9,2.82,1.9,4.67v.44c0,1.8-.63,3.35-1.9,4.66-1.31,1.31-2.89,1.97-4.74,1.97h-20.33Z"/>
      <path class="cls-2" d="m213.52,447.78c0,1.85-.66,3.4-1.97,4.67-1.31,1.31-2.87,1.97-4.66,1.97h-.22c-1.8,0-3.35-.66-4.66-1.97-1.31-1.26-1.97-2.82-1.97-4.67v-34.69h-44.09v34.69c0,1.85-.66,3.4-1.97,4.67-1.31,1.31-2.87,1.97-4.66,1.97h-.22c-1.8,0-3.35-.66-4.67-1.97-1.31-1.26-1.97-2.82-1.97-4.67v-67.34c0-9.81,3.47-18.19,10.42-25.14,6.95-6.9,15.3-10.35,25.07-10.35s18.19,3.45,25.14,10.35c6.95,6.95,10.42,15.33,10.42,25.14v67.34Zm-13.48-48.1v-19.24c0-6.07-2.14-11.27-6.41-15.6-4.33-4.32-9.55-6.49-15.67-6.49s-11.27,2.16-15.6,6.49c-4.28,4.33-6.41,9.52-6.41,15.6v19.24h44.09Z"/>
      <path class="cls-2" d="m262.72,392.98h32.58c1.8,0,3.35.63,4.66,1.89,1.31,1.31,1.97,2.89,1.97,4.74v.15c0,1.85-.66,3.4-1.97,4.66-1.31,1.31-2.87,1.97-4.66,1.97h-32.58v41.39c0,1.85-.66,3.4-1.97,4.67-1.31,1.31-2.87,1.97-4.66,1.97h-.22c-1.8,0-3.35-.66-4.67-1.97-1.31-1.26-1.97-2.82-1.97-4.67v-78.42c0-6.75,2.38-12.51,7.14-17.27,4.76-4.76,10.52-7.14,17.27-7.14h22.37c1.8,0,3.35.63,4.67,1.9,1.31,1.31,1.97,2.89,1.97,4.74v.15c0,1.85-.66,3.43-1.97,4.74-1.31,1.26-2.87,1.89-4.67,1.89h-22.37c-3.01,0-5.59,1.07-7.73,3.21-2.14,2.14-3.21,4.74-3.21,7.8v23.61Z"/>
      <path class="cls-2" d="m348.57,392.98h36.95c1.8,0,3.35.63,4.67,1.89,1.31,1.31,1.97,2.89,1.97,4.74v.15c0,1.85-.66,3.42-1.97,4.74-1.31,1.26-2.87,1.89-4.67,1.89h-36.95v23.61c0,3.01,1.07,5.59,3.21,7.73,2.14,2.14,4.71,3.21,7.73,3.21h26.02c1.8,0,3.35.66,4.67,1.97,1.31,1.31,1.97,2.89,1.97,4.74v.15c0,1.85-.66,3.4-1.97,4.67-1.31,1.31-2.87,1.97-4.67,1.97h-26.02c-6.75,0-12.51-2.38-17.27-7.14-4.76-4.76-7.14-10.52-7.14-17.27v-60.63c0-6.75,2.38-12.51,7.14-17.27,4.76-4.76,10.52-7.14,17.27-7.14h26.02c1.8,0,3.35.66,4.67,1.97,1.31,1.26,1.97,2.82,1.97,4.66v.15c0,1.85-.66,3.43-1.97,4.74-1.31,1.31-2.87,1.97-4.67,1.97h-26.02c-3.01,0-5.59,1.07-7.73,3.21-2.14,2.14-3.21,4.71-3.21,7.73v23.61Z"/>
      <path class="cls-2" d="m489.74,351.73c0,1.85-.66,3.43-1.97,4.74-1.26,1.26-2.82,1.89-4.67,1.89h-19.97v89.42c0,1.85-.63,3.4-1.9,4.67-1.31,1.31-2.89,1.97-4.74,1.97h-.15c-1.85,0-3.43-.66-4.74-1.97s-1.9-2.82-1.9-4.67v-89.42h-19.97c-1.8,0-3.35-.63-4.66-1.89-1.31-1.31-1.97-2.89-1.97-4.74v-.15c0-1.85.66-3.43,1.97-4.74,1.31-1.26,2.87-1.9,4.66-1.9h53.35c1.85,0,3.4.63,4.67,1.9,1.31,1.31,1.97,2.89,1.97,4.74v.15Z"/>
      <path class="cls-2" d="m589.93,383.94c0,8.6-2.74,16.2-8.24,22.81-5.44,6.46-12.29,10.5-20.55,12.1v28.93c0,1.85-.66,3.4-1.97,4.67-1.31,1.31-2.87,1.97-4.66,1.97h-.22c-1.8,0-3.35-.66-4.66-1.97-1.31-1.26-1.97-2.82-1.97-4.67v-28.93c-8.26-1.6-15.11-5.63-20.55-12.1-5.49-6.61-8.24-14.21-8.24-22.81v-32.36c0-1.85.66-3.43,1.97-4.74,1.31-1.26,2.87-1.9,4.66-1.9h.22c1.8,0,3.35.63,4.67,1.9,1.31,1.31,1.97,2.89,1.97,4.74v32.36c0,6.12,2.14,11.34,6.41,15.67,4.32,4.27,9.52,6.41,15.6,6.41s11.34-2.14,15.67-6.41c4.28-4.33,6.41-9.55,6.41-15.67v-32.36c0-1.85.66-3.43,1.97-4.74,1.31-1.26,2.87-1.9,4.67-1.9h.22c1.79,0,3.35.63,4.66,1.9,1.31,1.31,1.97,2.89,1.97,4.74v32.36Z"/>
      <path class="cls-2" d="m632.55,421.55c0,5.34,1.89,9.91,5.69,13.7,3.79,3.79,8.36,5.69,13.7,5.69s9.91-1.9,13.7-5.69c3.79-3.79,5.69-8.36,5.69-13.7v-69.96c0-1.85.65-3.43,1.97-4.74,1.31-1.26,2.89-1.9,4.74-1.9h.15c1.85,0,3.4.63,4.66,1.9,1.31,1.31,1.97,2.89,1.97,4.74v69.96c0,5.34,1.89,9.91,5.69,13.7,3.79,3.79,8.36,5.69,13.7,5.69s9.99-1.9,13.78-5.69c3.79-3.79,5.68-8.36,5.68-13.7v-69.96c0-1.85.66-3.43,1.97-4.74,1.26-1.26,2.82-1.9,4.67-1.9h.15c1.84,0,3.43.63,4.74,1.9,1.26,1.31,1.89,2.89,1.89,4.74v69.96c0,9.09-3.21,16.83-9.62,23.25-6.41,6.41-14.16,9.62-23.25,9.62-10.83,0-19.53-4.3-26.09-12.9-6.61,8.6-15.33,12.9-26.16,12.9-9.09,0-16.84-3.21-23.25-9.62-6.41-6.41-9.62-14.16-9.62-23.25v-69.96c0-1.85.66-3.43,1.97-4.74,1.31-1.26,2.87-1.9,4.66-1.9h.22c1.8,0,3.35.63,4.66,1.9,1.31,1.31,1.97,2.89,1.97,4.74v69.96Z"/>
      <path class="cls-2" d="m781.53,392.98h36.95c1.8,0,3.35.63,4.67,1.89,1.31,1.31,1.97,2.89,1.97,4.74v.15c0,1.85-.65,3.42-1.97,4.74-1.31,1.26-2.87,1.89-4.67,1.89h-36.95v23.61c0,3.01,1.07,5.59,3.21,7.73,2.13,2.14,4.71,3.21,7.72,3.21h26.02c1.8,0,3.35.66,4.67,1.97,1.31,1.31,1.97,2.89,1.97,4.74v.15c0,1.85-.65,3.4-1.97,4.67-1.31,1.31-2.87,1.97-4.67,1.97h-26.02c-6.75,0-12.51-2.38-17.27-7.14-4.76-4.76-7.14-10.52-7.14-17.27v-60.63c0-6.75,2.38-12.51,7.14-17.27,4.76-4.76,10.52-7.14,17.27-7.14h26.02c1.8,0,3.35.66,4.67,1.97,1.31,1.26,1.97,2.82,1.97,4.66v.15c0,1.85-.65,3.43-1.97,4.74-1.31,1.31-2.87,1.97-4.67,1.97h-26.02c-3.01,0-5.59,1.07-7.72,3.21-2.14,2.14-3.21,4.71-3.21,7.73v23.61Z"/>
      <path class="cls-2" d="m930.06,447.78c0,1.85-.65,3.4-1.97,4.67-1.31,1.31-2.87,1.97-4.66,1.97h-.22c-1.8,0-3.35-.66-4.66-1.97-1.31-1.26-1.97-2.82-1.97-4.67v-34.69h-44.09v34.69c0,1.85-.65,3.4-1.97,4.67-1.31,1.31-2.87,1.97-4.66,1.97h-.22c-1.8,0-3.35-.66-4.66-1.97-1.31-1.26-1.97-2.82-1.97-4.67v-67.34c0-9.81,3.47-18.19,10.42-25.14,6.95-6.9,15.3-10.35,25.07-10.35s18.19,3.45,25.14,10.35c6.95,6.95,10.42,15.33,10.42,25.14v67.34Zm-13.48-48.1v-19.24c0-6.07-2.14-11.27-6.41-15.6-4.32-4.32-9.54-6.49-15.67-6.49s-11.27,2.16-15.6,6.49c-4.28,4.33-6.41,9.52-6.41,15.6v19.24h44.09Z"/>
      <path class="cls-2" d="m1019.21,434.3c0-5.73-2.04-10.64-6.12-14.72-3.69-3.74-8.11-5.76-13.26-6.05h-23.76v34.25c0,1.85-.63,3.4-1.9,4.67-1.31,1.31-2.89,1.97-4.74,1.97h-.15c-1.85,0-3.4-.66-4.66-1.97-1.31-1.26-1.97-2.82-1.97-4.67v-76.59c0-7.24,2.55-13.41,7.65-18.51,5.15-5.15,11.34-7.73,18.58-7.73h9.47c9.48,0,17.54,3.35,24.2,10.06,6.71,6.7,10.06,14.79,10.06,24.27s-3.35,17.49-10.06,24.19c-1.21,1.22-2.45,2.31-3.72,3.28,1.31,1.02,2.58,2.14,3.79,3.35,6.65,6.66,9.99,14.72,9.99,24.2v13.48c0,1.85-.66,3.4-1.97,4.67-1.31,1.31-2.87,1.97-4.67,1.97h-.15c-1.8,0-3.35-.66-4.66-1.97-1.31-1.26-1.97-2.82-1.97-4.67v-13.48Zm-20.84-34.25c5.73,0,10.64-2.02,14.72-6.05,4.08-4.08,6.12-8.99,6.12-14.72s-2.04-10.71-6.12-14.79c-4.08-4.03-8.99-6.05-14.72-6.05h-8.38c-4.23,0-7.58,1.22-10.06,3.64-1.94,1.9-3.16,4.15-3.65,6.78-.15.68-.22,1.68-.22,2.99v28.2h22.3Z"/>
    </g>
  </g>
</svg>