<?xml version="1.0" encoding="UTF-8"?>
<svg id="Layer_1" data-name="Layer 1" xmlns="http://www.w3.org/2000/svg" viewBox="0 0 1080 540">
  <defs>
    <style>
      .cls-1 {
        fill: #06c;
      }

      .cls-2 {
        fill: #4d4d4d;
      }

      .cls-3 {
        fill: none;
      }

      .cls-4 {
        fill: #06f;
      }
    </style>
  </defs>
  <rect class="cls-3" width="1080" height="540"/>
  <g>
    <g>
      <path class="cls-4" d="m380.03,63.9v.06c-1.44-.3-2.84-.71-4.2-1.2-.65-.23-1.29-.48-1.92-.76-3.83-1.66-7.26-4.06-10.13-7.01-1.92-1.97-3.58-4.18-4.94-6.6-.68-1.19-1.27-2.43-1.78-3.72.97-.22,1.96-.4,2.96-.54,1.36-.18,2.75-.27,4.16-.27.88,0,1.75.04,2.62.11,2.54.2,5,.71,7.34,1.48h0s0,0,0,0c2.34,3.28,4.06,7.04,5.02,11.09.27,1.1.47,2.22.61,3.36.16,1.3.25,2.63.25,3.98Z"/>
      <path class="cls-1" d="m504.92,189.65v9.15c-.59-.08-1.17-.16-1.75-.25h0c-.16-.02-.3-.04-.46-.07h0c-1.38-.2-2.76-.39-4.14-.6-1.89-.27-3.79-.56-5.68-.85,1.9-1.13,3.8-2.27,5.68-3.43,2.13-1.3,4.26-2.62,6.37-3.95Z"/>
      <path class="cls-1" d="m504.92,185.53v4.12c-2.11,1.34-4.24,2.65-6.37,3.95-1.89,1.16-3.78,2.3-5.68,3.43-4.47-.68-8.93-1.4-13.38-2.15-5.26-.88-10.51-1.81-15.73-2.79-2.06-.39-4.11-.77-6.16-1.17-.01,0-.04,0-.05,0-.02,0-.03,0-.05-.01-3.4-1.32-6.78-2.66-10.17-4.03-1.44-.57-2.88-1.16-4.32-1.75-6.75-2.76-13.46-5.6-20.13-8.51-4.27-1.87-8.52-3.76-12.76-5.69-.04-.67-.07-1.34-.07-2.02,0-.6.01-1.2.05-1.78,4.03,1.01,8.07,1.99,12.13,2.94,5.02,1.18,10.07,2.33,15.13,3.43,1.42.3,2.84.62,4.27.91,9.96,2.12,19.98,4.07,30.07,5.86,3.14.56,6.29,1.1,9.44,1.63,4.46.74,8.92,1.46,13.41,2.13h0c.69.1,1.38.21,2.08.31.64.1,1.27.19,1.91.28,2.12.31,4.24.62,6.37.91Z"/>
      <path class="cls-4" d="m504.92,18.45v63.72c-2.13,0-4.25,0-6.37-.03-10.49-.07-20.94-.31-31.34-.74-13.44-.54-26.8-1.37-40.09-2.5-10.41-.87-20.77-1.92-31.08-3.14-2.82-.33-5.64-.68-8.45-1.03,1.29-3.58,2.74-7.1,4.33-10.53.33-.73.68-1.45,1.03-2.17h0c1.11-2.3,2.27-4.53,3.51-6.75,4.44-7.99,9.68-15.47,15.61-22.34,1.87-2.17,3.8-4.28,5.81-6.32,1.51-1.55,3.06-3.05,4.64-4.52,10.09-.91,20.23-1.64,30.42-2.21h.04c9.44-.53,18.91-.91,28.42-1.16h.1c.43,0,.86-.01,1.29-.02,5.24-.13,10.49-.21,15.74-.24,1.55-.01,3.09-.02,4.64-.02.58,0,1.15,0,1.73,0Z"/>
      <path class="cls-1" d="m356.59,85.7c-.12.54-.22,1.07-.33,1.61-.53,2.59-1.03,5.17-1.51,7.77-.65,3.47-1.27,6.96-1.85,10.45h0c-.01.07-.02.13-.03.19-.19,1.1-.37,2.2-.54,3.3-.04.23-.07.47-.12.71-1.58,9.96-2.91,20.02-3.97,30.15-.26-.14-.52-.28-.77-.42-.48-.27-.97-.54-1.45-.81,0,0,0,0,0,0h0c-1.32-.71-2.62-1.45-3.93-2.18-.56-.31-1.13-.63-1.69-.95-.08-.62-.15-1.23-.22-1.84h0c.97-7.01,2.49-13.82,4.5-20.43h0c.27-.89.54-1.78.84-2.65v-.02c.3-.92.62-1.84.94-2.76.38-1.06.77-2.12,1.17-3.17.17-.45.35-.91.53-1.36,1.02-2.59,2.12-5.15,3.3-7.66,1.4-2.99,2.91-5.92,4.52-8.78.2-.37.42-.74.63-1.11Z"/>
      <path class="cls-4" d="m504.92,224.01v6.68c-2.13,0-4.25-.01-6.37-.04-11.3-.13-22.53-.59-33.66-1.37-2.8-.19-5.6-.41-8.4-.65-1.12-.1-2.24-.19-3.36-.3-.67-.06-1.34-.12-2.01-.19-.7-.07-1.4-.13-2.1-.2,0,0,0,0-.01,0-3,1.43-6.01,2.82-9.04,4.2-.89.4-1.78.8-2.68,1.2h0c-2.36-.27-4.7-.56-7.05-.88-1.93-.25-3.86-.52-5.78-.79h0c-.94-.13-1.87-.27-2.81-.41-.51-.07-1.02-.15-1.53-.23-8.93-1.34-17.8-2.88-26.59-4.64-9.93-1.98-19.77-4.21-29.5-6.7-2.46-.63-4.91-1.27-7.35-1.93-.66-2.39-1.31-4.8-1.94-7.21-.02-.08-.04-.16-.07-.24-.25-.97-.51-1.95-.76-2.93-.36-1.42-.72-2.85-1.07-4.27-.05-.22-.1-.42-.16-.63-.7-2.82-1.37-5.65-2.02-8.48-1.75-7.59-3.34-15.23-4.78-22.93-.62-3.27-1.2-6.55-1.75-9.84-.79-4.65-1.52-9.32-2.18-14.01-.19-1.34-.38-2.69-.56-4.03-.35-2.56-.68-5.13-.99-7.71.56.32,1.12.64,1.69.95,1.31.74,2.62,1.47,3.93,2.18h0s0,0,0,0c.48.27.97.54,1.45.81.25.14.51.28.77.42-.03.34-.07.68-.1,1.03-.07.68-.13,1.36-.2,2.04.3,2.21.61,4.41.94,6.6.7,4.69,1.46,9.36,2.27,14.01,1.81,10.31,3.89,20.52,6.26,30.63.85,3.66,1.74,7.3,2.67,10.93.05.21.1.42.16.62.16.6.31,1.2.47,1.8.41,1.59.82,3.17,1.26,4.76,8.83,2.33,17.75,4.44,26.74,6.34h0c7.16,1.51,14.37,2.88,21.62,4.11h0c4.88.83,9.79,1.61,14.71,2.3,2.07.3,4.14.58,6.21.85,1.66.22,3.32.43,4.99.63,3.89-1.75,7.76-3.54,11.6-5.38,1.57.16,3.14.31,4.72.45,1.12.1,2.25.21,3.38.3.39.04.77.07,1.16.1,1.17.1,2.33.2,3.51.28h0c12.54.99,25.18,1.55,37.93,1.69,2.12.02,4.24.04,6.37.04Z"/>
      <path class="cls-4" d="m629.81,63.9v.06c1.44-.3,2.84-.71,4.2-1.2.65-.23,1.29-.48,1.92-.76,3.83-1.66,7.26-4.06,10.13-7.01,1.92-1.97,3.58-4.18,4.94-6.6.68-1.19,1.27-2.43,1.78-3.72-.97-.22-1.96-.4-2.96-.54-1.36-.18-2.75-.27-4.16-.27-.88,0-1.75.04-2.62.11-2.54.2-5,.71-7.34,1.48h0s0,0,0,0c-2.34,3.28-4.06,7.04-5.02,11.09-.27,1.1-.47,2.22-.61,3.36-.16,1.3-.25,2.63-.25,3.98Z"/>
      <path class="cls-4" d="m504.92,189.65v9.15c.59-.08,1.17-.16,1.75-.25h0c.16-.02.3-.04.46-.07h0c1.38-.2,2.76-.39,4.14-.6,1.89-.27,3.79-.56,5.68-.85-1.9-1.13-3.8-2.27-5.68-3.43-2.13-1.3-4.26-2.62-6.37-3.95Z"/>
      <path class="cls-1" d="m504.92,185.53v4.12c2.11,1.34,4.24,2.65,6.37,3.95,1.89,1.16,3.78,2.3,5.68,3.43,4.47-.68,8.93-1.4,13.38-2.15,5.26-.88,10.51-1.81,15.73-2.79,2.06-.39,4.11-.77,6.16-1.17.01,0,.04,0,.05,0,.02,0,.03,0,.05-.01,3.4-1.32,6.78-2.66,10.17-4.03,1.44-.57,2.88-1.16,4.32-1.75,6.75-2.76,13.46-5.6,20.13-8.51,4.27-1.87,8.52-3.76,12.76-5.69.04-.67.07-1.34.07-2.02,0-.6-.01-1.2-.05-1.78-4.03,1.01-8.07,1.99-12.13,2.94-5.02,1.18-10.07,2.33-15.13,3.43-1.42.3-2.84.62-4.27.91-9.96,2.12-19.98,4.07-30.07,5.86-3.14.56-6.29,1.1-9.44,1.63-4.46.74-8.92,1.46-13.41,2.13h0c-.69.1-1.38.21-2.08.31-.64.1-1.27.19-1.91.28-2.12.31-4.24.62-6.37.91Z"/>
      <path class="cls-4" d="m504.92,18.45v63.72c2.13,0,4.25,0,6.37-.03,10.49-.07,20.94-.31,31.34-.74,13.44-.54,26.8-1.37,40.09-2.5,10.41-.87,20.77-1.92,31.08-3.14,2.82-.33,5.64-.68,8.45-1.03-1.29-3.58-2.74-7.1-4.33-10.53-.33-.73-.68-1.45-1.03-2.17h0c-1.11-2.3-2.27-4.53-3.51-6.75-4.44-7.99-9.68-15.47-15.61-22.34-1.87-2.17-3.8-4.28-5.81-6.32-1.51-1.55-3.06-3.05-4.64-4.52-10.09-.91-20.23-1.64-30.42-2.21h-.04c-9.44-.53-18.91-.91-28.42-1.16h-.1c-.43,0-.86-.01-1.29-.02-5.24-.13-10.49-.21-15.74-.24-1.55-.01-3.09-.02-4.64-.02-.58,0-1.15,0-1.73,0Z"/>
      <path class="cls-1" d="m653.25,85.7c.12.54.22,1.07.33,1.61.53,2.59,1.03,5.17,1.51,7.77.65,3.47,1.27,6.96,1.85,10.45h0c.01.07.02.13.03.19.19,1.1.37,2.2.54,3.3.04.23.07.47.12.71,1.58,9.96,2.91,20.02,3.97,30.15.26-.14.52-.28.77-.42.48-.27.97-.54,1.45-.81,0,0,0,0,0,0h0c1.32-.71,2.62-1.45,3.93-2.18.56-.31,1.13-.63,1.69-.95.08-.62.15-1.23.22-1.84h0c-.97-7.01-2.49-13.82-4.5-20.43h0c-.27-.89-.54-1.78-.84-2.65v-.02c-.3-.92-.62-1.84-.94-2.76-.38-1.06-.77-2.12-1.17-3.17-.17-.45-.35-.91-.53-1.36-1.02-2.59-2.12-5.15-3.3-7.66-1.4-2.99-2.91-5.92-4.52-8.78-.2-.37-.42-.74-.63-1.11Z"/>
      <path class="cls-4" d="m504.92,224.01v6.68c2.13,0,4.25-.01,6.37-.04,11.3-.13,22.53-.59,33.66-1.37,2.8-.19,5.6-.41,8.4-.65,1.12-.1,2.24-.19,3.36-.3.67-.06,1.34-.12,2.01-.19.7-.07,1.4-.13,2.1-.2,0,0,0,0,.01,0,3,1.43,6.01,2.82,9.04,4.2.89.4,1.78.8,2.68,1.2h0c2.36-.27,4.7-.56,7.05-.88,1.93-.25,3.86-.52,5.78-.79h0c.94-.13,1.87-.27,2.81-.41.51-.07,1.02-.15,1.53-.23,8.93-1.34,17.8-2.88,26.59-4.64,9.93-1.98,19.77-4.21,29.5-6.7,2.46-.63,4.91-1.27,7.35-1.93.66-2.39,1.31-4.8,1.94-7.21.02-.08.04-.16.07-.24.25-.97.51-1.95.76-2.93.36-1.42.72-2.85,1.07-4.27.05-.22.1-.42.16-.63.7-2.82,1.37-5.65,2.02-8.48,1.75-7.59,3.34-15.23,4.78-22.93.62-3.27,1.2-6.55,1.75-9.84.79-4.65,1.52-9.32,2.18-14.01.19-1.34.38-2.69.56-4.03.35-2.56.68-5.13.99-7.71-.56.32-1.12.64-1.69.95-1.31.74-2.62,1.47-3.93,2.18h0s0,0,0,0c-.48.27-.97.54-1.45.81-.25.14-.51.28-.77.42.03.34.07.68.1,1.03.07.68.13,1.36.2,2.04-.3,2.21-.61,4.41-.94,6.6-.7,4.69-1.46,9.36-2.27,14.01-1.81,10.31-3.89,20.52-6.26,30.63-.85,3.66-1.74,7.3-2.67,10.93-.05.21-.1.42-.16.62-.16.6-.31,1.2-.47,1.8-.41,1.59-.82,3.17-1.26,4.76-8.83,2.33-17.75,4.44-26.74,6.34h0c-7.16,1.51-14.37,2.88-21.62,4.11h0c-4.88.83-9.79,1.61-14.71,2.3-2.07.3-4.14.58-6.21.85-1.66.22-3.32.43-4.99.63-3.89-1.75-7.76-3.54-11.6-5.38-1.57.16-3.14.31-4.72.45-1.12.1-2.25.21-3.38.3-.39.04-.77.07-1.16.1-1.17.1-2.33.2-3.51.28h0c-12.54.99-25.18,1.55-37.93,1.69-2.12.02-4.24.04-6.37.04Z"/>
      <g>
        <path class="cls-2" d="m498.55,82.14v85.4c-4.79-5.69-9.11-11.79-12.91-18.24-.62-1.04-1.21-2.1-1.8-3.15-1.96-3.55-3.77-7.2-5.42-10.94-.7-1.61-1.37-3.23-2.01-4.87-4.82-12.26-7.87-25.41-8.86-39.13-.23-3.21-.35-6.46-.35-9.73v-.07c10.4.42,20.85.67,31.34.74Z"/>
        <path class="cls-2" d="m511.29,82.14v85.4c4.79-5.69,9.11-11.79,12.91-18.24.62-1.04,1.21-2.1,1.8-3.15,1.96-3.55,3.77-7.2,5.42-10.94.7-1.61,1.37-3.23,2.01-4.87,4.82-12.26,7.87-25.41,8.86-39.13.23-3.21.35-6.46.35-9.73v-.07c-10.4.42-20.85.67-31.34.74Z"/>
      </g>
      <g>
        <path class="cls-2" d="m420.59,144.71c-.88.08-1.78.12-2.69.12-.63,0-1.26-.01-1.88-.06-5.97-6.1-12.55-11.61-19.63-16.44,0,0-.02-.01-.03-.02-.02-.01-.04-.03-.06-.04-.59-.4-1.17-.8-1.76-1.19-.05-.03-.11-.07-.16-.1-2.43-1.66-4.79-3.4-7.1-5.2-2.59-2.04-5.11-4.16-7.55-6.38-.31-.28-.62-.56-.93-.85-1.63-1.51-3.21-3.05-4.76-4.64-.07-.07-.14-.15-.22-.22-.27-.27-.54-.56-.81-.84l-.25-.27c-.52-.57-1.01-1.16-1.49-1.77-2.76-3.51-4.79-7.61-5.88-12.08,2.91,3.86,6.03,7.56,9.33,11.08,1.69,1.81,3.43,3.56,5.23,5.25,2.04,1.94,4.13,3.8,6.29,5.6.45.39.91.76,1.37,1.13,2.73,2.22,5.57,4.34,8.49,6.34.52.36,1.06.71,1.58,1.07.3.19.6.39.9.59.01.01.04.02.05.04,5.37,3.7,10.47,7.78,15.24,12.21,2.31,2.15,4.56,4.38,6.71,6.68Z"/>
        <path class="cls-2" d="m386.43,126.72c0,3.46-2.76,6.27-6.2,6.36-.06,0-.11,0-.17,0-3.52,0-6.38-2.85-6.38-6.37s2.62-6.14,5.94-6.36c.14,0,.28-.01.43-.01,3.51,0,6.37,2.85,6.37,6.38Z"/>
        <path class="cls-2" d="m589.25,144.71c.88.08,1.78.12,2.69.12.63,0,1.26-.01,1.88-.06,5.97-6.1,12.55-11.61,19.63-16.44,0,0,.02-.01.03-.02.02-.01.04-.03.06-.04.59-.4,1.17-.8,1.76-1.19.05-.03.11-.07.16-.1,2.43-1.66,4.79-3.4,7.1-5.2,2.59-2.04,5.11-4.16,7.55-6.38.31-.28.62-.56.93-.85,1.63-1.51,3.21-3.05,4.76-4.64.07-.07.14-.15.22-.22.27-.27.54-.56.81-.84l.25-.27c.52-.57,1.01-1.16,1.49-1.77,2.76-3.51,4.79-7.61,5.88-12.08-2.91,3.86-6.03,7.56-9.33,11.08-1.69,1.81-3.43,3.56-5.23,5.25-2.04,1.94-4.13,3.8-6.29,5.6-.45.39-.91.76-1.37,1.13-2.73,2.22-5.57,4.34-8.49,6.34-.52.36-1.06.71-1.58,1.07-.3.19-.6.39-.9.59-.01.01-.04.02-.05.04-5.37,3.7-10.47,7.78-15.24,12.21-2.31,2.15-4.56,4.38-6.71,6.68Z"/>
        <path class="cls-2" d="m623.41,126.72c0,3.46,2.76,6.27,6.2,6.36.06,0,.11,0,.17,0,3.52,0,6.38-2.85,6.38-6.37,0-3.37-2.62-6.14-5.94-6.36-.14,0-.28-.01-.43-.01-3.51,0-6.37,2.85-6.37,6.38Z"/>
      </g>
    </g>
    <g>
      <g>
        <path class="cls-1" d="m695.1,457.99c-8.08,2.03-16.19,3.99-24.33,5.9-10.08,2.37-20.2,4.67-30.35,6.87-2.85.61-5.69,1.24-8.56,1.83-19.99,4.25-40.08,8.17-60.31,11.75-6.31,1.12-12.61,2.21-18.94,3.26-8.94,1.49-17.9,2.92-26.9,4.28h-.01c-1.39.21-2.77.42-4.17.63-1.28.19-2.55.39-3.83.57-4.25.63-8.51,1.24-12.77,1.83-4.26-.6-8.53-1.21-12.77-1.83-1.28-.18-2.55-.37-3.83-.57-1.4-.21-2.79-.42-4.17-.63h-.01c-9-1.36-17.96-2.79-26.9-4.28-6.33-1.06-12.64-2.15-18.94-3.26-20.23-3.58-40.32-7.5-60.31-11.75-2.86-.6-5.71-1.22-8.56-1.83-10.15-2.21-20.27-4.5-30.35-6.87-8.14-1.91-16.25-3.88-24.33-5.9-.07,1.18-.1,2.37-.1,3.58,0,1.36.04,2.71.13,4.05,8.5,3.88,17.04,7.68,25.59,11.42,13.39,5.84,26.84,11.54,40.38,17.07,2.89,1.18,5.77,2.36,8.66,3.5,6.78,2.74,13.58,5.43,20.39,8.08.04.02.06.03.1.03.03,0,.07.01.1.01,4.11.8,8.23,1.58,12.36,2.36,10.48,1.95,21,3.83,31.55,5.59,8.91,1.52,17.86,2.95,26.83,4.32,3.8.6,7.6,1.16,11.4,1.71,2.77.42,5.53.8,8.3,1.21h.01c.31.04.61.09.92.13h.01c1.16.16,2.34.33,3.52.49h0c1.18-.16,2.36-.33,3.52-.49h.01c.31-.04.61-.09.92-.13h.01c2.77-.4,5.53-.79,8.3-1.21,3.8-.55,7.6-1.12,11.4-1.71,8.97-1.37,17.92-2.8,26.83-4.32,10.55-1.76,21.08-3.64,31.55-5.59,4.13-.78,8.24-1.55,12.36-2.36.03,0,.07-.01.1-.01.04,0,.06-.01.1-.03,6.81-2.65,13.61-5.34,20.39-8.08,2.89-1.15,5.77-2.33,8.66-3.5,13.53-5.53,26.99-11.22,40.38-17.07,8.56-3.74,17.1-7.54,25.59-11.42.09-1.34.13-2.7.13-4.05,0-1.21-.03-2.4-.1-3.58Zm-190.18,45.19h0c4.23,2.68,8.5,5.32,12.77,7.93-4.28-2.61-8.54-5.25-12.77-7.93Z"/>
        <path class="cls-2" d="m429.27,286.06c20.87.85,41.82,1.34,62.87,1.48v171.31c-9.6-11.42-18.27-23.65-25.89-36.59-1.24-2.09-2.43-4.2-3.61-6.32-3.94-7.12-7.56-14.44-10.87-21.94-1.4-3.22-2.76-6.47-4.04-9.76-9.66-24.59-15.78-50.96-17.77-78.49-.46-6.44-.7-12.95-.7-19.53v-.15Zm88.42,1.48v171.31c9.6-11.42,18.27-23.65,25.89-36.59,1.24-2.09,2.43-4.2,3.61-6.32,3.94-7.12,7.56-14.44,10.87-21.94,1.4-3.22,2.76-6.47,4.04-9.76,9.66-24.59,15.78-50.96,17.77-78.49.46-6.44.7-12.95.7-19.53v-.15c-20.87.85-41.82,1.34-62.87,1.48Z"/>
      </g>
      <g>
        <path class="cls-4" d="m274.75,360.76c13.91,0,26.04,7.61,32.46,18.89,2.91,5.09,4.65,10.94,4.84,17.16v45.23h-42.88v-36.67c.11-.89.16-1.82.16-2.75s-.05-1.85-.16-2.75c-1.27-10.69-9.83-19.15-20.58-20.23-.76-.08-1.56-.11-2.36-.11s-1.58.03-2.36.11h-3.48v-31.19h12.92c8.61,0,15.6-6.99,15.6-15.6s-6.99-15.6-15.6-15.6h-30.57v124.79h-42.7v-155.98h94.69c18.53,0,33.89,13.49,36.83,31.19.26,1.59.42,3.22.47,4.88v2.57c-.29,9.15-3.88,17.44-9.62,23.76-6.81,7.56-16.69,12.3-27.68,12.3Z"/>
        <rect class="cls-4" x="352.97" y="286.06" width="41.17" height="155.98"/>
        <path class="cls-4" d="m124.65,317.3c-7.52-13.58-20.12-23.97-35.23-28.6-5.62-1.72-11.58-2.65-17.76-2.65H0v155.98h77.06c4.26-.38,8.39-1.19,12.35-2.41,15.1-4.63,27.69-15,35.22-28.57,4.82-8.69,7.56-18.68,7.56-29.32v-35.14c0-10.63-2.74-20.61-7.55-29.29Zm-35.23,70.87c-.12,1.7-.27,2.93-.44,3.7,0,0,0,0,0,.01-.31,1.8-.83,3.53-1.54,5.16h0c-1.65,3.82-4.29,7.11-7.61,9.54-3.07,2.24-6.7,3.75-10.65,4.26-.98.12-1.97.19-2.98.19h-23.43v-93.73h23.43c5.1,0,9.81,1.65,13.64,4.45,3.71,2.72,6.59,6.51,8.16,10.93h0c.61,1.72,1.03,3.53,1.21,5.41,0,0,0,0,0,0,.04.2.27,5.9.3,6.65.13,3.26.2,7.74.2,13.45.19,14.61.1,24.6-.28,29.97Z"/>
        <path class="cls-4" d="m755.76,424.94l-10.27-28.23-40.27-110.64h0s-41.81,0-41.81,0l-40.27,110.64-10.28,28.23-6.23,17.1h41.81l6.22-17.1,6.07-16.66h0c.09-.3.19-.59.32-.87h0s3.89-10.69,3.89-10.69l19.37-53.2,19.36,53.2h-25.89v28.23h36.16l6.23,17.1h41.81l-6.22-17.1Z"/>
        <polygon class="cls-4" points="909.59 286.06 864.32 286.06 824.62 286.06 779.35 286.06 779.35 313.19 824.62 313.19 824.62 442.04 864.32 442.04 864.32 313.19 909.59 313.19 909.59 286.06"/>
        <g>
          <polygon class="cls-4" points="1080 286.06 952.59 286.06 952.59 442.04 1080 442.04 1080 412.42 994.55 412.42 994.55 315.68 1080 315.68 1080 286.06"/>
          <rect class="cls-4" x="1010.6" y="350.49" width="53.35" height="27.12"/>
        </g>
      </g>
    </g>
  </g>
</svg>