<?xml version="1.0" encoding="UTF-8"?>
<svg id="Layer_1" data-name="Layer 1" xmlns="http://www.w3.org/2000/svg" viewBox="0 0 1080 540">
  <defs>
    <style>
      .cls-1 {
        fill: none;
      }

      .cls-2 {
        fill: #f4a323;
      }

      .cls-3 {
        fill: #2878ff;
      }
    </style>
  </defs>
  <rect class="cls-1" width="1080" height="540"/>
  <g>
    <path class="cls-3" d="m560.22,208.01c2.48-44.08,21.19-83.88,50.2-113.57-27.63-27.9-51.39-59.64-70.42-94.44-38.75,70.84-96.99,129.08-167.83,167.82,30.39,16.62,58.44,36.86,83.65,60.11,25.9-26.47,42.61-61.98,44.85-101.3.29-5.07,4.47-9.04,9.55-9.04h0c5.47,0,9.87,4.59,9.56,10.05-2.48,44.08-21.19,83.88-50.2,113.57,27.63,27.9,51.39,59.64,70.42,94.44,38.75-70.84,96.99-129.08,167.82-167.83-30.39-16.62-58.43-36.85-83.64-60.1-25.91,26.47-42.62,61.98-44.85,101.3-.29,5.07-4.47,9.04-9.55,9.04h0c-5.47,0-9.87-4.59-9.56-10.05Z"/>
    <g>
      <path class="cls-3" d="m120.83,475.02c-6.54-11.95-16.36-21.78-28.32-28.32,11.95-6.54,21.78-16.36,28.32-28.32,6.54,11.95,16.36,21.78,28.32,28.32-11.95,6.54-21.78,16.37-28.32,28.32Z"/>
      <path class="cls-3" d="m97.88,510.94h36.55c10.74,0,20.28-3.03,28.6-9.08,4.84,4.09,7.26,9.46,7.26,16.12s-2.42,11.99-7.26,16c-4.84,4.01-12.11,6.02-21.79,6.02h-49.26c-15.13,0-26.22-3.25-33.25-9.76-7.04-6.5-10.56-16.8-10.56-30.87v-100.79c0-7.72-2.57-12.94-7.72-15.66,5.6-6.66,12.48-9.99,20.66-9.99h75.82c11.95,0,20.5,1.55,25.65,4.65,5.14,3.1,7.72,7.68,7.72,13.73s-2.42,11.12-7.26,15.21c-7.26-2.87-16.8-4.31-28.6-4.31h-50.62v92.61c0,10.75,4.69,16.12,14.07,16.12Z"/>
      <path class="cls-3" d="m315.25,456.71v56.98c0,8.17,2.42,13.54,7.26,16.12-5.45,6.51-12.34,9.76-20.66,9.76-14.83,0-22.25-9-22.25-27.01v-50.62c0-5.45-1.33-9.72-3.97-12.83-2.65-3.1-6.39-4.65-11.24-4.65s-9.53,2.23-14.07,6.7c-4.54,4.47-7.8,11.09-9.76,19.86v42.68c0,8.17,2.5,13.54,7.49,16.12-5.75,6.51-12.71,9.76-20.88,9.76-14.83,0-22.25-9-22.25-27.01v-71.05c0-7.87-2.57-13.17-7.72-15.89,5.75-6.51,12.48-9.76,20.2-9.76s13.39,1.93,17.02,5.79c3.63,3.86,5.67,9.8,6.13,17.82,4.09-7.72,9.72-13.58,16.91-17.59,7.19-4.01,15.51-6.02,24.97-6.02s17.29,3.48,23.49,10.44c6.2,6.96,9.31,17.1,9.31,30.42Z"/>
      <path class="cls-3" d="m448.89,442.86c0,5.6-1.74,9.95-5.22,13.05-3.48,3.1-8.1,4.65-13.85,4.65s-10.9-1.74-15.44-5.22c.45-1.82.68-4.24.68-7.26s-.87-5.75-2.61-8.17c-1.74-2.42-4.13-3.63-7.15-3.63-5.9,0-11.01,4.01-15.32,12.03-4.31,8.02-6.47,17.97-6.47,29.85s2.61,20.96,7.83,27.24c5.22,6.28,12.07,9.42,20.54,9.42,12.56,0,23.08-4.77,31.55-14.3,3.48,1.36,5.22,4.54,5.22,9.53,0,7.72-4.28,14.57-12.83,20.54-8.55,5.98-18.73,8.97-30.53,8.97-17.71,0-31.48-5.07-41.31-15.21-9.84-10.14-14.75-24.14-14.75-41.99s5.75-33.4,17.25-46.65c11.5-13.24,26.25-19.86,44.26-19.86,10.14,0,19.03,2.46,26.67,7.38,7.64,4.92,11.46,11.46,11.46,19.64Z"/>
      <path class="cls-3" d="m499.41,431.85c10.74-10.67,24.82-16,42.22-16s31.48,5.33,42.22,16c10.74,10.67,16.12,25.92,16.12,45.74s-5.41,35.11-16.23,45.85c-10.82,10.75-24.89,16.12-42.22,16.12s-31.36-5.37-42.11-16.12c-10.75-10.74-16.12-26.03-16.12-45.85s5.37-35.07,16.12-45.74Zm39.27,1.25c-13.02,0-19.52,11.35-19.52,34.05,0,3.33.15,6.81.45,10.44,1.82,29.81,10.14,44.72,24.97,44.72,13.01,0,19.52-11.42,19.52-34.28,0-3.18-.15-6.66-.45-10.44-2.12-29.66-10.44-44.49-24.97-44.49Z"/>
      <path class="cls-3" d="m819.25,456.71v56.98c0,8.17,2.42,13.54,7.26,16.12-5.45,6.51-12.33,9.76-20.66,9.76-14.83,0-22.24-9-22.24-27.01v-50.62c0-5.45-1.33-9.72-3.97-12.83-2.65-3.1-6.4-4.65-11.24-4.65s-9.53,2.16-14.07,6.47c-4.54,4.31-7.8,10.71-9.76,19.18v43.58c0,8.17,2.42,13.54,7.26,16.12-5.45,6.51-12.34,9.76-20.66,9.76-14.83,0-22.25-9-22.25-27.01v-50.62c0-5.45-1.33-9.72-3.97-12.83-2.65-3.1-6.4-4.65-11.24-4.65s-9.54,2.23-14.08,6.7c-4.54,4.47-7.79,11.09-9.76,19.86v42.68c0,8.17,2.5,13.54,7.49,16.12-5.75,6.51-12.71,9.76-20.88,9.76-14.83,0-22.24-9-22.24-27.01v-71.05c0-7.87-2.58-13.17-7.72-15.89,5.75-6.51,12.49-9.76,20.2-9.76s13.39,1.93,17.03,5.79c3.63,3.86,5.67,9.8,6.13,17.82,4.09-7.72,9.72-13.58,16.91-17.59,7.19-4.01,14.98-6.02,23.38-6.02s15.47,2.27,21.22,6.81c5.75,4.54,9.61,11.12,11.58,19.75,3.93-8.63,9.68-15.21,17.25-19.75,7.57-4.54,16.19-6.81,25.88-6.81s17.63,3.48,23.83,10.44c6.2,6.96,9.31,17.1,9.31,30.42Z"/>
      <path class="cls-2" d="m868.58,394.38c-6.54-11.95-16.36-21.78-28.32-28.32,11.95-6.54,21.78-16.36,28.32-28.32,6.54,11.95,16.36,21.78,28.32,28.32-11.95,6.54-21.78,16.37-28.32,28.32Z"/>
      <path class="cls-3" d="m889.24,442.86v70.82c0,8.17,2.5,13.54,7.49,16.12-5.75,6.51-12.71,9.76-20.88,9.76-14.83,0-22.24-9-22.24-27.01v-71.05c0-7.87-2.58-13.17-7.72-15.89,5.75-6.51,12.6-9.76,20.54-9.76s13.73,2.2,17.37,6.58c3.63,4.39,5.45,11.2,5.45,20.43Z"/>
      <path class="cls-3" d="m1027.3,456.71v51.53c0,9.53,4.09,15.59,12.26,18.16-2.72,3.78-6.39,6.92-11.01,9.42-4.62,2.5-9.5,3.75-14.64,3.75-11.2,0-18.16-4.99-20.88-14.98-9.38,9.99-21.11,14.98-35.18,14.98-10.44,0-18.77-2.57-24.97-7.72-6.21-5.14-9.31-12.41-9.31-21.79,0-11.5,6.02-20.69,18.05-27.58,12.03-6.88,28.72-10.48,50.05-10.78v-21.56c0-10.14-4.09-15.21-12.26-15.21-3.33,0-6.09,1.02-8.29,3.06-2.2,2.04-3.29,4.77-3.29,8.17s1.21,6.55,3.63,9.42c-5.15,5.45-11.62,8.17-19.41,8.17s-13.54-1.74-17.25-5.22c-3.71-3.48-5.56-8.02-5.56-13.62,0-8.47,5.18-15.44,15.55-20.88,10.36-5.45,22.47-8.17,36.32-8.17s25,3.26,33.48,9.76c8.47,6.51,12.71,16.88,12.71,31.1Zm-65.15,49.26c0,7.42,4.23,11.12,12.71,11.12,6.2,0,11.8-2.87,16.8-8.63v-22.02c-19.67,1.06-29.51,7.57-29.51,19.52Z"/>
    </g>
  </g>
</svg>