<?xml version="1.0" encoding="UTF-8"?>
<svg xmlns="http://www.w3.org/2000/svg" viewBox="0 0 1080 540">
  <defs>
    <style>
      .cls-1 {
        fill: #404041;
      }

      .cls-2 {
        fill: #437cbf;
      }

      .cls-3 {
        mix-blend-mode: multiply;
      }

      .cls-3, .cls-4, .cls-5 {
        fill: none;
      }

      .cls-4 {
        isolation: isolate;
      }

      .cls-6 {
        fill: #f6921e;
      }
    </style>
  </defs>
  <g class="cls-4">
    <g id="Layer_1" data-name="Layer 1">
      <rect class="cls-5" width="1080" height="540"/>
      <g class="cls-3">
        <g>
          <path class="cls-6" d="m585.76,367.87v-13.46l-9.91-15.95h5.02l6.17,9.99c.15.26.33.59.55,1,.22.42.45.86.67,1.35.19-.47.38-.91.59-1.33s.42-.8.65-1.15l6.33-9.86h4.78l-10.13,15.95v13.46h-4.74Z"/>
          <path class="cls-6" d="m640.74,353.22c0,2.09-.39,4.06-1.17,5.92-.78,1.86-1.93,3.52-3.43,4.98-1.52,1.46-3.22,2.58-5.12,3.36-1.9.77-3.9,1.17-5.99,1.17s-4.14-.39-6.06-1.18c-1.92-.78-3.62-1.9-5.09-3.35-1.5-1.46-2.64-3.11-3.42-4.96-.78-1.85-1.17-3.83-1.17-5.95s.39-4.08,1.17-5.95c.78-1.86,1.92-3.53,3.42-5,1.5-1.46,3.2-2.57,5.1-3.34,1.9-.76,3.92-1.14,6.05-1.14s4.12.38,6.02,1.14c1.9.76,3.59,1.88,5.09,3.34,1.5,1.49,2.64,3.16,3.43,5.03.78,1.87,1.17,3.84,1.17,5.92Zm-4.98,0c0-1.49-.27-2.9-.81-4.24-.54-1.34-1.32-2.53-2.34-3.58-.99-1.03-2.14-1.82-3.44-2.38-1.31-.56-2.68-.83-4.13-.83s-2.82.27-4.13.82c-1.3.55-2.47,1.35-3.48,2.39-1.02,1.03-1.8,2.22-2.33,3.56-.54,1.34-.81,2.76-.81,4.26s.27,2.89.81,4.22c.53,1.33,1.31,2.51,2.33,3.56,1.02,1.05,2.18,1.84,3.47,2.39,1.3.55,2.68.82,4.14.82s2.79-.27,4.09-.82c1.29-.55,2.45-1.35,3.49-2.39,1.02-1.05,1.8-2.23,2.34-3.57.54-1.33.81-2.74.81-4.21Z"/>
          <path class="cls-6" d="m654.33,338.46h4.72v17.86c0,2.65.61,4.65,1.84,5.98,1.23,1.33,3.06,2,5.49,2s4.25-.67,5.48-2c1.22-1.33,1.84-3.33,1.84-5.98v-17.86h4.78v18.3c0,3.98-1.01,6.95-3.01,8.93-2.01,1.98-5.04,2.96-9.08,2.96s-7.07-.99-9.06-2.95c-2-1.97-2.99-4.95-2.99-8.94v-18.3Z"/>
          <path class="cls-6" d="m737.55,345.61c-1.35-1.15-2.78-2.02-4.29-2.59-1.51-.58-3.09-.86-4.75-.86-3.21,0-5.83,1.03-7.84,3.09-2.02,2.06-3.03,4.73-3.03,8.02s.98,5.79,2.94,7.85c1.96,2.06,4.44,3.09,7.43,3.09,1.74,0,3.4-.31,4.97-.92,1.57-.61,3.08-1.55,4.53-2.79v5.41c-1.29.92-2.69,1.61-4.2,2.07s-3.15.68-4.92.68c-2.25,0-4.33-.37-6.24-1.11-1.91-.74-3.58-1.82-5.03-3.25-1.43-1.41-2.53-3.07-3.31-4.97-.77-1.91-1.16-3.94-1.16-6.1s.39-4.18,1.16-6.08c.77-1.89,1.88-3.56,3.35-4.99,1.46-1.45,3.13-2.54,5.02-3.28,1.89-.74,3.93-1.12,6.13-1.12,1.73,0,3.38.25,4.94.75,1.57.5,3.09,1.26,4.56,2.28l-.26,4.82Z"/>
          <path class="cls-6" d="m771.13,367.87l-3.34-7.57h-11.66l-3.42,7.57h-5.02l14.24-30.58,14.23,30.58h-5.04Zm-13.22-11.55h8.2l-3.02-6.71c-.17-.43-.35-.92-.54-1.48-.19-.56-.37-1.17-.56-1.86-.16.64-.33,1.24-.51,1.8-.18.56-.37,1.07-.56,1.54l-3.01,6.71Z"/>
          <path class="cls-6" d="m787.17,367.87v-29.41h4.78v25.13h10.69v4.28h-15.47Z"/>
          <path class="cls-6" d="m814.75,367.87v-29.41h4.78v25.13h10.69v4.28h-15.47Z"/>
          <path class="cls-6" d="m859.47,338.46h4.72l5.57,14.85c.36.98.67,1.83.91,2.57.25.74.46,1.43.65,2.07.47-1.55.96-3.07,1.47-4.56.07-.19.11-.32.14-.38l5.91-15.71,6.23,16.01c.3.78.57,1.55.83,2.33.26.78.51,1.56.73,2.35.13-.6.31-1.27.54-1.99.23-.72.52-1.58.88-2.57l5.53-14.97h4.76l-11.39,30.56-6.71-16.77c-.29-.75-.56-1.47-.8-2.16s-.46-1.34-.64-1.96c-.23.79-.46,1.53-.68,2.22-.23.69-.46,1.35-.7,1.98l-6.59,16.69-11.35-30.56Z"/>
          <path class="cls-6" d="m909.83,367.87v-29.41h16.42v4.06h-11.63v7.37h11.63v4.2h-11.63v9.5h11.63v4.28h-16.42Z"/>
          <path class="cls-6" d="m965.09,354.67v13.2h-4.48v-29.41h7.23c2.14,0,3.72.12,4.73.35,1.01.23,1.89.62,2.64,1.16.93.68,1.65,1.6,2.17,2.76.52,1.16.78,2.43.78,3.83s-.26,2.68-.78,3.86-1.25,2.1-2.17,2.77c-.75.54-1.63.92-2.64,1.15-1.01.22-2.59.34-4.73.34h-2.75Zm.3-3.92h1.23c2.65,0,4.42-.29,5.3-.86.88-.58,1.33-1.6,1.33-3.05,0-1.57-.47-2.67-1.42-3.32-.94-.64-2.68-.96-5.21-.96h-1.23v8.2Z"/>
          <path class="cls-6" d="m990.82,367.87v-29.41h4.78v29.41h-4.78Z"/>
          <path class="cls-6" d="m1010.69,367.87v-30.58l18.68,17.98c.51.51,1.02,1.05,1.55,1.63.52.58,1.07,1.23,1.64,1.95v-20.39h4.42v30.56l-19.07-18.3c-.51-.5-1-1.02-1.48-1.57-.48-.55-.93-1.13-1.36-1.73v20.45h-4.4Z"/>
          <path class="cls-6" d="m1068.26,352.8h11.66c0,.2,0,.48.02.84.04.95.06,1.59.06,1.93,0,4.14-1.19,7.35-3.56,9.64-2.37,2.29-5.71,3.44-10.03,3.44-2.41,0-4.56-.36-6.45-1.07-1.89-.71-3.54-1.78-4.96-3.21-1.39-1.42-2.46-3.09-3.2-5-.75-1.92-1.12-3.96-1.12-6.15s.38-4.27,1.13-6.15c.76-1.88,1.88-3.53,3.37-4.96,1.43-1.41,3.11-2.48,5.04-3.22,1.93-.73,3.99-1.1,6.19-1.1,2.32,0,4.39.42,6.22,1.27s3.46,2.14,4.89,3.88l-3.5,2.63c-.99-1.15-2.11-2.01-3.35-2.57-1.25-.56-2.64-.84-4.18-.84-3.19,0-5.79,1.02-7.81,3.06-2.01,2.04-3.02,4.7-3.02,7.97s1.01,6.02,3.02,8.09c2.02,2.07,4.63,3.1,7.85,3.1,2.73,0,4.88-.64,6.45-1.91,1.57-1.27,2.35-3.01,2.35-5.2v-.42h-7.07v-4.04Z"/>
        </g>
        <g>
          <g>
            <path class="cls-2" d="m110.3,205.9c-2.96-6.97-7.05-13.11-12.18-18.24h0c-5.13-5.13-11.26-9.22-18.24-12.18-7.03-2.98-14.59-4.49-22.49-4.49s-15.65,1.51-22.61,4.5c-6.91,2.96-13,7.05-18.11,12.17-5.12,5.12-9.22,11.26-12.18,18.24-2.98,7.02-4.49,14.59-4.49,22.49v75.22h25.64v-44.58h26.75v-25.64h-26.75v-5.01c0-4.36.82-8.35,2.51-12.2,1.71-3.9,4.02-7.32,6.87-10.18,2.86-2.86,6.28-5.17,10.18-6.88,7.71-3.37,16.69-3.37,24.39,0,3.9,1.71,7.32,4.03,10.18,6.88,2.85,2.85,5.17,6.28,6.87,10.18,1.69,3.85,2.51,7.84,2.51,12.2v7.87h25.64v-7.87c0-7.89-1.51-15.46-4.49-22.49Z"/>
            <rect class="cls-2" x="130.9" y="170.99" width="25.64" height="132.62"/>
            <path class="cls-2" d="m285.71,223.73c-2.96-6.97-7.05-13.11-12.18-18.24h0c-5.13-5.13-11.26-9.23-18.24-12.18-7.03-2.98-14.59-4.49-22.49-4.49s-15.65,1.51-22.61,4.5c-6.9,2.96-13,7.05-18.11,12.17-5.12,5.12-9.22,11.26-12.18,18.24-2.98,7.03-4.49,14.59-4.49,22.49s1.51,15.65,4.5,22.61c2.96,6.91,7.06,13.01,12.17,18.11,5.11,5.12,11.21,9.21,18.12,12.17,6.97,2.99,14.57,4.5,22.61,4.5,9.16,0,17.91-2.13,26.01-6.33,2-1.04,3.92-2.16,5.75-3.38v9.71h25.64v-57.39c0-7.89-1.51-15.46-4.49-22.49Zm-65.11,51.74c-3.9-1.71-7.32-4.02-10.18-6.87-2.86-2.86-5.17-6.28-6.88-10.18-1.69-3.85-2.51-7.84-2.51-12.19s.82-8.35,2.51-12.2c1.71-3.9,4.02-7.32,6.87-10.18,2.85-2.85,6.28-5.17,10.18-6.87,3.85-1.69,7.84-2.51,12.2-2.51s8.34.82,12.2,2.51c3.9,1.71,7.32,4.03,10.18,6.88,2.85,2.85,5.17,6.28,6.87,10.17,1.69,3.86,2.51,7.85,2.51,12.2s-.82,8.34-2.51,12.2c-1.71,3.9-4.02,7.32-6.88,10.18-2.86,2.85-6.28,5.17-10.18,6.88-7.7,3.38-16.69,3.38-24.4,0Z"/>
            <path class="cls-2" d="m344.68,214.46h79.19v-25.64h-79.19c-4.97,0-9.68.9-13.99,2.67-4.29,1.77-8.1,4.25-11.31,7.38-3.25,3.16-5.8,6.88-7.59,11.06-1.8,4.21-2.72,8.75-2.72,13.5s.9,9.29,2.67,13.59c1.78,4.32,4.32,8.16,7.55,11.38,3.17,3.18,6.92,5.75,11.15,7.66,4.37,1.97,9.16,2.97,14.23,2.97h44.58c2.5,0,4.55.82,6.46,2.57,1.17,1.08,2.52,2.78,2.52,6.4,0,2.94-.89,5.22-2.8,7.17-1.89,1.93-3.8,2.79-6.17,2.79h-80.18v25.64h80.18c4.84,0,9.47-1.02,13.74-3.02,4.07-1.91,7.71-4.49,10.81-7.68,3.14-3.22,5.62-7.03,7.39-11.31,1.77-4.31,2.67-8.88,2.67-13.59s-.91-9.29-2.72-13.5c-1.77-4.14-4.27-7.83-7.42-10.98-3.15-3.15-6.84-5.64-10.98-7.41-4.21-1.8-8.75-2.72-13.5-2.72h-44.58c-2.95,0-5.15-.88-7.12-2.85s-2.85-4.16-2.85-7.12c0-2.79.79-4.75,2.56-6.35,1.98-1.79,4.34-2.63,7.41-2.63Z"/>
            <path class="cls-2" d="m552.9,224h0c-3.03-6.81-7.21-12.91-12.42-18.12-5.21-5.22-11.31-9.4-18.12-12.42-6.93-3.08-14.4-4.64-22.21-4.64-9.73,0-18.65,2.15-26.52,6.39-1.81.98-3.56,2.03-5.24,3.17v-27.39h-25.64v132.62h25.64v-57.39c0-4.36.82-8.35,2.51-12.2,1.71-3.9,4.02-7.32,6.87-10.18,2.85-2.85,6.28-5.17,10.18-6.87,7.7-3.38,16.69-3.37,24.39,0,3.9,1.71,7.32,4.03,10.18,6.88,2.85,2.85,5.17,6.28,6.87,10.17,1.69,3.86,2.51,7.85,2.51,12.2v57.39h25.64v-57.39c0-7.81-1.56-15.28-4.64-22.21Z"/>
          </g>
          <g>
            <path class="cls-1" d="m688.25,248c0,7.94-1.5,15.33-4.49,22.14-3,6.82-7.08,12.74-12.26,17.76-5.17,5.02-11.13,8.99-17.87,11.92-6.74,2.92-13.94,4.38-21.58,4.38s-15.32-1.46-22.14-4.38c-6.82-2.92-12.74-6.89-17.76-11.92-5.02-5.02-8.99-10.94-11.92-17.76-2.92-6.82-4.38-14.2-4.38-22.14v-73.06h11.24v39.34h30.35v11.24h-30.35v22.48c0,6.15,1.2,11.95,3.6,17.42,2.4,5.47,5.62,10.23,9.67,14.28,4.05,4.05,8.81,7.27,14.28,9.67,5.47,2.4,11.28,3.6,17.42,3.6s11.95-1.2,17.42-3.6c5.47-2.4,10.23-5.62,14.28-9.67,4.04-4.05,7.27-8.8,9.67-14.28,2.39-5.47,3.6-11.27,3.6-17.42h11.24Z"/>
            <path class="cls-1" d="m755.14,292.96c9.59,0,18.06-2.55,25.4-7.64,7.34-5.09,12.74-11.92,16.19-20.46h12.36c-1.95,5.7-4.68,10.94-8.2,15.74-3.53,4.8-7.64,8.92-12.37,12.37-4.72,3.45-9.93,6.18-15.62,8.2-5.7,2.02-11.61,3.04-17.76,3.04-7.94,0-15.32-1.46-22.14-4.38-6.82-2.92-12.74-6.89-17.76-11.92-5.02-5.02-9-10.94-11.92-17.76-2.92-6.82-4.38-14.2-4.38-22.14s1.46-15.14,4.38-22.03c2.92-6.89,6.89-12.85,11.92-17.87,5.02-5.02,10.94-8.99,17.76-11.92s14.2-4.38,22.14-4.38,15.14,1.46,22.03,4.38c6.89,2.92,12.85,6.9,17.87,11.92,5.02,5.02,9,10.98,11.92,17.87,2.92,6.9,4.38,14.24,4.38,22.03v5.62h-101.17c.9,5.7,2.66,10.94,5.28,15.74,2.62,4.8,5.96,8.92,10.01,12.36,4.04,3.45,8.58,6.18,13.6,8.21,5.02,2.02,10.38,3.04,16.07,3.04Zm0-89.93c-5.7,0-11.05,1.01-16.07,3.04-5.02,2.02-9.56,4.76-13.6,8.2-4.05,3.45-7.38,7.61-10.01,12.48-2.62,4.87-4.38,10.08-5.28,15.63h89.93c-.9-5.54-2.66-10.75-5.28-15.63-2.62-4.87-5.96-9.03-10.01-12.48-4.04-3.45-8.62-6.18-13.71-8.2-5.1-2.02-10.42-3.04-15.96-3.04Z"/>
            <path class="cls-1" d="m1023.8,191.79c7.64,0,14.84,1.5,21.58,4.5,6.75,3,12.7,7.08,17.87,12.25,5.17,5.17,9.25,11.13,12.26,17.87,2.99,6.74,4.49,13.94,4.49,21.58v56.2h-11.24v-56.2c0-6.14-1.2-11.95-3.6-17.42-2.4-5.47-5.62-10.23-9.67-14.28-4.05-4.05-8.81-7.27-14.28-9.67-5.47-2.4-11.28-3.6-17.42-3.6s-11.95,1.2-17.42,3.6c-5.47,2.4-10.23,5.62-14.27,9.67-4.05,4.05-7.27,8.81-9.67,14.28-2.4,5.47-3.6,11.28-3.6,17.42v56.2h-11.24v-132.64h11.24v42.71c5.09-6.74,11.47-12.17,19.11-16.3,7.64-4.12,16.26-6.18,25.85-6.18Z"/>
          </g>
          <g>
            <path class="cls-2" d="m917.27,264.97l-12.43,21.52c-1,1.74-2.86,2.81-4.87,2.81h-40.54c-2.01,0-3.86-1.07-4.87-2.81l-20.27-35.11c-1-1.74-1-3.88,0-5.62l20.27-35.11c1-1.74,2.86-2.81,4.87-2.81h40.54c2.01,0,3.86,1.07,4.87,2.81l12.43,21.52c1,1.74,2.86,2.81,4.87,2.81h0c4.33,0,7.03-4.68,4.87-8.43l-16.2-28.06c-.68-1.17-1.92-1.89-3.27-1.89h-54.58c-2.01,0-3.86,1.07-4.87,2.81l-26.76,46.35c-1,1.74-1,3.88,0,5.62l26.76,46.35c1,1.74,2.86,2.81,4.87,2.81h53.52c2.01,0,3.86-1.07,4.87-2.81l15.67-27.14c2.16-3.75-.54-8.43-4.87-8.43h0c-2.01,0-3.86,1.07-4.87,2.81Z"/>
            <rect class="cls-6" x="883.45" y="242.95" width="75.89" height="11.24" rx="4.46" ry="4.46"/>
          </g>
        </g>
      </g>
    </g>
  </g>
</svg>