<?xml version="1.0" encoding="UTF-8"?>
<svg id="Layer_1" data-name="Layer 1" xmlns="http://www.w3.org/2000/svg" viewBox="0 0 1080 540">
  <defs>
    <style>
      .cls-1 {
        fill: #63ea00;
      }

      .cls-2 {
        fill: none;
      }
    </style>
  </defs>
  <rect class="cls-2" width="1080" height="540"/>
  <g>
    <path class="cls-1" d="m359.69,473.66v-64.58h22.02c20.68,0,34.23,12.35,34.23,32.29s-13.54,32.29-34.23,32.29h-22.02Zm-24.11,19.79h47.32c34.08,0,57.44-20.54,57.44-52.08s-23.36-52.08-57.44-52.08h-47.32v104.17Zm-44.34-23.21c-6.1,3.27-12.2,4.46-18.75,4.46-19.94,0-33.78-13.84-33.78-33.33s13.84-33.33,34.08-33.33c10.57,0,19.35,3.72,26.93,11.76l15.48-14.29c-10.12-11.76-25.3-18.01-43.6-18.01-33.18,0-57.29,22.47-57.29,53.87s24.11,53.87,56.84,53.87c14.88,0,30.65-4.61,42.11-13.24v-42.26h-22.02v30.51Z"/>
    <path class="cls-1" d="m850.17,423.96v-10.57h-22.17v80.06h23.21v-37.8c0-15.33,8.48-22.32,21.28-22.32,1.79,0,3.27.15,5.21.3v-21.43c-12.35,0-21.87,4.02-27.53,11.76Zm-83.48,55.06c-8.18,0-13.1-3.87-13.1-9.67,0-5.36,3.42-9.37,14.29-9.37h15.92v8.18c-2.68,7.29-9.37,10.86-17.11,10.86Zm1.79-66.81c-12.8,0-25.74,3.42-34.52,9.67l8.33,16.22c5.8-4.61,14.58-7.44,23.07-7.44,12.5,0,18.45,5.8,18.45,15.77h-18.45c-24.4,0-34.37,9.82-34.37,23.96s11.16,24.26,29.91,24.26c11.76,0,20.09-3.87,24.4-11.16v9.97h21.73v-45.68c0-24.26-14.14-35.57-38.54-35.57Zm-77.08,81.25h23.21v-110.42h-23.21v110.42Zm-59.37-17.86c-11.61,0-20.54-8.33-20.54-22.17s8.93-22.17,20.54-22.17,20.39,8.33,20.39,22.17-8.78,22.17-20.39,22.17Zm0,19.05c25.45,0,43.9-17.11,43.9-41.22s-18.45-41.22-43.9-41.22-44.05,17.11-44.05,41.22,18.6,41.22,44.05,41.22Zm-97.17.6c29.76,0,44.2-14.88,44.2-32.29,0-38.24-60.56-25-60.56-44.2,0-6.55,5.51-11.9,19.79-11.9,9.23,0,19.2,2.68,28.87,8.18l7.44-18.3c-9.67-6.1-23.07-9.23-36.16-9.23-29.61,0-43.9,14.73-43.9,32.44,0,38.69,60.56,25.3,60.56,44.79,0,6.4-5.8,11.16-20.09,11.16-12.5,0-25.59-4.46-34.37-10.86l-8.18,18.15c9.23,7.14,25.89,12.05,42.41,12.05Z"/>
    <rect class="cls-1" x="733.68" y="286.72" width="346.32" height="23.09"/>
    <path class="cls-1" d="m477.07,100.56c1.64,1.64,1.64,4.29,0,5.92-1.64,1.64-4.29,1.64-5.92,0l-17.77-17.77c-1.64-1.64-1.64-4.29,0-5.92,1.64-1.64,4.29-1.64,5.92,0l17.77,17.77Zm-32.4,69.85c2.31,0,4.19,1.88,4.19,4.19s-1.88,4.19-4.19,4.19h-25.13c-2.31,0-4.19-1.88-4.19-4.19s1.88-4.19,4.19-4.19h25.13Zm201.03,8.38c-2.31,0-4.19-1.88-4.19-4.19s1.88-4.19,4.19-4.19h25.13c2.31,0,4.19,1.88,4.19,4.19s-1.88,4.19-4.19,4.19h-25.13Zm-26.48-72.3c-1.64,1.64-4.29,1.64-5.92,0-1.64-1.64-1.64-4.29,0-5.92l17.77-17.77c1.64-1.64,4.29-1.64,5.92,0,1.64,1.64,1.64,4.29,0,5.92l-17.77,17.77Zm-69.85-32.4c0,2.31-1.88,4.19-4.19,4.19s-4.19-1.88-4.19-4.19v-25.13c0-2.31,1.88-4.19,4.19-4.19s4.19,1.88,4.19,4.19v25.13Zm67.01,100.52c0,2.31-1.88,4.19-4.19,4.19s-4.19-1.88-4.19-4.19c0-34.7-28.13-62.82-62.82-62.82s-62.82,28.13-62.82,62.82c0,2.31-1.88,4.19-4.19,4.19s-4.19-1.88-4.19-4.19c0-39.32,31.88-71.2,71.2-71.2s71.2,31.88,71.2,71.2Zm-197,121.46h72.34l12.56-46.07h-51.4l-33.51,46.07Zm179.25,0h72.34l-33.51-46.07h-51.4l12.56,46.07Zm-84.07-83.76h-34.27l-21.32,29.32h47.59l8-29.32Zm52.54,0h-43.86l-8,29.32h59.85l-8-29.32Zm42.95,0h-34.27l8,29.32h47.59l-21.32-29.32Zm-109.65,83.76h89.55l-12.56-46.07h-64.42l-12.56,46.07Zm178.8,8.38h-268.04c-3.42,0-5.4-3.88-3.39-6.65l67.01-92.14c.79-1.08,2.05-1.72,3.39-1.72h134.02c1.34,0,2.6.64,3.39,1.72l67.01,92.14c2.01,2.77.04,6.65-3.39,6.65Z"/>
    <rect class="cls-1" y="288.58" width="365.98" height="24.4"/>
  </g>
</svg>