<?xml version="1.0" encoding="UTF-8"?>
<svg id="Layer_1" data-name="Layer 1" xmlns="http://www.w3.org/2000/svg" viewBox="0 0 1080 540">
  <defs>
    <style>
      .cls-1 {
        fill: #502d7e;
      }

      .cls-2 {
        fill: none;
      }

      .cls-3 {
        fill: #e9308f;
      }
    </style>
  </defs>
  <rect class="cls-2" width="1080" height="540"/>
  <g>
    <g>
      <path class="cls-1" d="m561.25,241.56c-6.19,0-12.26-.55-18.15-1.6-14.47,19.51-33.15,35.73-54.69,47.3-8.85,4.75-18.19,8.72-27.92,11.81.1.24.2.49.31.73,4.41,1.03,8.88,1.89,13.41,2.57,9.56-2.26,18.81-5.36,27.65-9.21,26.15-11.38,48.77-29.34,65.79-51.78-2.12.14-4.25.2-6.4.2"/>
      <path class="cls-3" d="m663.66,137.81c-.11-13.26-1.77-26.16-4.84-38.51-2.11-8.53-4.89-16.81-8.27-24.75-3.92-9.22-8.66-18.02-14.14-26.28-.02-.03-.03-.06-.06-.09-.75-1.15-1.53-2.28-2.31-3.41-1.83-2.62-3.73-5.18-5.71-7.69,0,0-.01-.02-.02-.02-12.86-15.51-30.21-27.15-50.06-32.95-9.13-2.68-18.8-4.11-28.79-4.11-1.96,0-3.92.06-5.86.17-1.78.1-3.54.24-5.29.44-1.94.21-3.86.47-5.77.79-2.47.41-4.91.91-7.32,1.49-5.94,1.44-11.67,3.4-17.15,5.82-4.51,1.99-8.85,4.31-12.99,6.91-3.49,2.19-6.84,4.58-10.03,7.16-.02.02-.04.03-.06.04,0,0,0-.01-.01-.02-23.23,7.45-40.54,28.11-43.11,53.13-.21,2-.32,4.03-.33,6.08v.4c0,1.25.04,2.49.11,3.73.07,1.31.2,2.63.35,3.93.08.52.15,1.05.22,1.58.31,2.51.47,5.07.47,7.66,0,1.37-.04,2.72-.14,4.07-1.29.39-2.67.6-4.09.6-2.87,0-5.53-.85-7.76-2.31,1.91,4.48,6.06,7.77,11.04,8.49-2.69,15.41-11.01,28.87-22.77,38.2-.3.25-.6.48-.9.71-.25.23-.47.49-.67.76-.68.94-1.09,2.09-1.09,3.34,0,1.61.67,3.07,1.75,4.1,0,0,.02.01.02.02.33.26.67.52,1.01.77,4.5,3.31,9.72,5.7,15.39,6.88.67.14,1.34.27,2.03.37-.67,4.34-3.31,8.03-6.97,10.15,0,.09,0,.17,0,.27,0,7.85,6.37,14.22,14.23,14.22-7.29,0-13.29,5.47-14.13,12.53,0,.01,0,.02,0,.04-.04.39-.07.8-.09,1.2v.04c.11,3.04,2.62,5.47,5.68,5.47.67,0,1.31-.11,1.91-.33.02,0,.02-.01.04-.01.9-.33,1.88-.51,2.89-.51,4.71,0,8.53,3.83,8.53,8.53,0,.18,0,.36-.02.54v.07s0,.02,0,.04c-.02.24-.04.48-.08.72-.57,5.56-.86,11.2-.86,16.92,0,7.54.51,14.96,1.49,22.24h0s.13.95.13.95c.57,2.55,2.84,4.46,5.55,4.46.41,0,.8-.04,1.18-.12.39-.13.8-.26,1.19-.4,17.82-5.97,34.29-14.89,48.82-26.2-10.49,15.04-23.43,28.24-38.23,39.04-4.15,3.03-8.45,5.87-12.88,8.51-5.52,3.28-11.24,6.25-17.15,8.88,3.31,1.32,6.68,2.53,10.09,3.63,3.34-1.28,6.63-2.67,9.86-4.17,6.78-3.15,13.32-6.76,19.57-10.78,18.68-12.06,34.77-27.89,47.23-46.45-3.74-1.44-7.38-3.08-10.89-4.94-.86-.46-1.71-.92-2.55-1.39-23.44-13.2-41.16-35.35-48.51-61.83-.49-1.78-.94-3.57-1.35-5.39-.69-3.17-1.25-6.39-1.64-9.66h0c-.49-4.08-.75-8.22-.75-12.42s.27-8.56.79-12.74c1.35-10.88,4.41-21.22,8.9-30.77,8.67-18.48,22.72-33.93,40.12-44.37,4.16-2.5,8.51-4.71,13.04-6.61,5.34-2.24,10.9-4.04,16.65-5.35.42-.1.85-.2,1.27-.28,2.71-.59,5.46-1.06,8.25-1.42,2.29-.3,4.6-.52,6.93-.67,2.15-.14,4.31-.2,6.48-.2.71,0,1.41,0,2.1.02,5.07.1,10.05.57,14.91,1.39,3.71.62,7.36,1.44,10.92,2.45,17.23,4.87,32.61,14.14,44.87,26.52,1.65,1.66,3.23,3.38,4.76,5.15,4.71,5.45,8.85,11.41,12.34,17.78,1.65,3,3.15,6.11,4.49,9.29h-46.09c-5.21-6.31-11.63-11.57-18.91-15.45h0c-3.9-2.08-8.05-3.76-12.38-4.97v60.25h85.42c0-.44,0-.89,0-1.33"/>
      <path class="cls-1" d="m565.06,178.78c-1.26.12-2.52.19-3.81.19s-2.55-.06-3.81-.19h-19.13v-97.9c-4.21,1.66-8.21,3.76-11.92,6.26-5.04,3.39-9.56,7.49-13.43,12.16-2.48,3-4.68,6.24-6.57,9.67-4.93,8.95-7.74,19.23-7.74,30.16,0,1.9.09,3.79.25,5.65,1.15,12.85,6.18,24.57,13.91,34,4.25,5.19,9.32,9.69,15.02,13.29,3.29,2.09,6.8,3.87,10.48,5.32.99.39,2,.76,3.01,1.1.47.15.93.31,1.39.45,5.86,1.81,12.08,2.79,18.53,2.79,1.01,0,2.02-.02,3.02-.07,4.82-.23,9.51-1.01,13.99-2.26,5.19-1.46,10.11-3.58,14.67-6.26,6.4-3.77,12.07-8.64,16.75-14.35h-44.62Z"/>
    </g>
    <g>
      <g>
        <path class="cls-1" d="m198.86,458.64h72.78l4.21-11.8s-1.09,0-1.25.48c-1.09,2.55-12.65,8.76-41.07,8.76h-20.47v-106.47h16.25c23.05,2.56,37.33,3.66,39.36,7.18.15.31,1.41.47,1.41.47l-1.88-10.2h-69.34v111.57Z"/>
        <path class="cls-1" d="m218.12,407.69c2.18-5.9,5.47-6.21,9.37-6.21,7.5,0,17.18,6.05,24.83,6.05,3.44,0,6.56-1.75,8.74-6.69-2.03,2.71-4.68,2.23-7.65,2.23-7.8,0-17.81-5.73-25.3-5.73-4.53,0-8.12,2.39-10,10.36"/>
        <path class="cls-1" d="m443.82,458.46c-4.58-.1-7.87-.64-9.84-1.59-1.98-.96-3.36-3.08-4.14-6.38-.78-3.29-1.17-8.66-1.17-16.1v-61.99c0-7.43.39-12.8,1.17-16.1.78-3.29,2.16-5.42,4.14-6.37,1.97-.96,5.26-1.49,9.84-1.6.52,0,.78-.18.78-.56s-.26-.56-.78-.56c-4.79,0-8.85.1-12.19.31-1.04.1-2.44.16-4.21.16h-12.34c-5.21,0-9.68,2.1-13.43,6.29-3.75,4.2-6.87,9.38-9.37,15.54-2.5,6.16-5.52,14.77-9.06,25.81-2.6,8.29-5.21,16-7.81,23.11-.31-4.14-1.69-8.29-4.13-12.43-2.45-4.15-5.31-7.97-8.59-11.48-3.28-3.5-7.72-7.97-13.35-13.38-7.8-7.44-13.66-13.63-17.57-18.57-3.91-4.94-5.86-9.9-5.86-14.9h-10.16c-1.77,0-3.18-.06-4.21-.16-3.34-.21-7.4-.31-12.19-.31-.52,0-.78.18-.78.56s.26.56.78.56c4.58.11,7.86.64,9.84,1.6,1.97.96,3.36,3.08,4.13,6.37.78,3.29,1.17,8.66,1.17,16.1l.16,62.15c0,7.02-1.54,12.75-4.61,17.21-3.07,4.46-7.42,6.75-13.04,6.85-.42,0-.63.19-.63.56s.21.56.63.56c4.68,0,9.21-.11,13.59-.31,1.46-.11,3.17-.16,5.15-.16h.47c2.09,0,3.7.06,4.84.16,4.16.21,8.69.31,13.59.31,9.16,0,16.84-2.97,23.03-8.92,6.19-5.95,11.14-13.15,14.84-21.59,3.7-8.45,7.68-19.47,11.94-33.07,3.44-10.84,6.37-19.29,8.82-25.35,2.44-6.05,5.44-11.16,8.98-15.3,3.54-4.15,7.8-6.27,12.8-6.37v85.42c0,7.55-.39,12.94-1.17,16.18-.78,3.25-2.13,5.37-4.06,6.37-1.93,1.01-5.18,1.57-9.77,1.68-.52,0-.78.19-.78.56s.26.56.78.56c4.79-.11,8.69-.27,11.72-.48l4.68-.16,10.93-.16c1.77,0,3.17.06,4.21.16,3.33.21,7.4.32,12.19.32.52,0,.78-.19.78-.56s-.26-.56-.78-.56m-109.16-.16c-6.15,0-10.78-2.76-13.9-8.29-3.12-5.52-4.68-12.38-4.68-20.56l.15-68.53c0,3.08,1.64,6.64,4.92,10.68,3.28,4.04,8.36,9.45,15.23,16.26,6.66,6.48,12.05,12.03,16.16,16.65,4.11,4.62,7.68,9.62,10.7,14.98,3.02,5.37,4.58,10.6,4.68,15.7-8.54,15.41-19.63,23.11-33.26,23.11"/>
        <path class="cls-1" d="m522.48,347.42h-2.65l-55.45,111.57h14.84s0-1.12-.62-1.28c-1.41-.48-2.97-3.35-2.97-8.13,0-4.31,1.25-10.2,4.84-17.53l34.05-68.7,35.61,71.56c-11.08-11.95-27.64-21.04-41.85-21.04-9.53,0-17.96,3.83-23.27,13.71,6.09-8.29,14.22-11.8,22.8-11.8,18.43,0,39.04,15.14,48.1,30.76l6.25,12.43h15.78l-55.45-111.57Z"/>
        <path class="cls-1" d="m172.69,406.32c.67-.02.88-.38.88-.38h-42.32s.42.46,1.21.48c15.72.34,15.68,8.06,15.92,19.18v13.78c0,6.89-2.15,8.74-5.6,10.75-3.29,1.68-8.4,2.86-14,2.86-31.94,0-45.44-26.55-45.44-53.27,0-30.75,16.3-48.4,41.49-48.4,4.78,0,11.53.84,15.31,2.18,10.37,3.53,15.15,9.58,19.1,23.87l4.94-1.01c-1.32-10.59-2.15-20.84-2.47-27.06-5.1-.84-17.45-4.2-34.25-4.2-32.93,0-61.25,21.17-61.25,56.63s22.72,57.47,60.1,57.47c13.83,0,27.17-3.7,37.38-6.05-.83-4.53-.99-10.08-.99-15.96v-14.12c.3-8.7-.07-16.52,10-16.76"/>
      </g>
      <g>
        <path class="cls-3" d="m592.28,458.34h77.59v-17.58h-58.27v-93.26h-19.32v110.85Zm322.71-17.74l-12.51-12.67c-4.75,4.44-9.56,7.94-14.41,10.53-4.86,2.59-10.67,3.88-17.42,3.88-5.28,0-10.16-1.03-14.65-3.08-4.49-2.06-8.37-4.88-11.64-8.47-3.28-3.59-5.81-7.79-7.6-12.59-1.8-4.8-2.69-9.95-2.69-15.44s.89-10.61,2.69-15.36c1.79-4.75,4.33-8.89,7.6-12.43,3.27-3.54,7.15-6.34,11.64-8.39,4.49-2.06,9.37-3.08,14.65-3.08,6.34,0,11.98,1.26,16.94,3.79,4.96,2.54,9.66,5.86,14.1,9.98l12.51-14.41c-2.64-2.54-5.44-4.86-8.39-6.97-2.96-2.12-6.18-3.94-9.66-5.47-3.48-1.53-7.31-2.71-11.48-3.56-4.18-.85-8.79-1.27-13.86-1.27-8.45,0-16.15,1.51-23.12,4.52-6.97,3-12.99,7.13-18.05,12.35-5.07,5.23-9,11.32-11.8,18.29-2.79,6.97-4.2,14.41-4.2,22.33s1.43,15.52,4.27,22.48c2.86,6.97,6.79,13.01,11.8,18.13,5.01,5.12,10.95,9.16,17.81,12.11,6.86,2.95,14.35,4.43,22.49,4.43,5.17,0,9.89-.45,14.17-1.35,4.27-.89,8.21-2.22,11.8-3.95,3.58-1.75,6.93-3.8,10.05-6.18,3.12-2.38,6.1-5.09,8.95-8.16m36.74-64.13c0-3.7,1.59-6.84,4.75-9.42,3.17-2.59,7.6-3.88,13.3-3.88,5.07,0,10.08.97,15.04,2.93,4.96,1.96,9.97,4.78,15.04,8.47l10.45-14.73c-5.7-4.54-11.8-8-18.29-10.37-6.49-2.38-13.8-3.56-21.92-3.56-5.5,0-10.56.76-15.19,2.29-4.64,1.53-8.61,3.72-11.9,6.57-3.3,2.85-5.89,6.26-7.77,10.21-1.89,3.96-2.83,8.37-2.83,13.22,0,5.18.82,9.56,2.46,13.15,1.64,3.58,4.02,6.65,7.14,9.18,3.12,2.54,6.98,4.65,11.59,6.33,4.6,1.69,9.87,3.23,15.79,4.6,5.18,1.26,9.39,2.48,12.62,3.64,3.23,1.17,5.77,2.4,7.63,3.72,1.84,1.32,3.12,2.77,3.81,4.36.69,1.59,1.04,3.38,1.04,5.38,0,4.34-1.77,7.76-5.31,10.3-3.54,2.53-8.3,3.8-14.33,3.8-6.97,0-13.2-1.24-18.68-3.72-5.49-2.48-10.93-6.04-16.31-10.69l-11.72,13.93c6.65,6.02,13.88,10.48,21.69,13.38,7.82,2.91,16,4.36,24.55,4.36,5.8,0,11.13-.74,15.98-2.22,4.85-1.48,9-3.65,12.45-6.5,3.46-2.85,6.15-6.33,8.09-10.45,1.94-4.12,2.91-8.81,2.91-14.09,0-4.64-.77-8.67-2.31-12.11-1.54-3.43-3.78-6.44-6.74-9.03-2.97-2.59-6.69-4.77-11.2-6.57-4.49-1.79-9.66-3.43-15.47-4.9-5.29-1.26-9.66-2.48-13.1-3.65-3.44-1.16-6.14-2.42-8.09-3.79-1.96-1.38-3.31-2.86-4.05-4.44-.74-1.59-1.11-3.49-1.11-5.7"/>
        <g>
          <path class="cls-1" d="m710.19,435.47c-5.02,2.7-10.14,5.23-15.35,7.58-4.89-5.09-8.72-11.03-11.51-17.81-1.23-3.02-2.18-6.13-2.88-9.31,8.64-2.7,17.08-5.85,25.3-9.43,26.22-11.41,50.11-27.15,70.81-46.29.77.7,1.52,1.41,2.25,2.16,2.99,3.05,5.58,6.42,7.8,10.1-21.02,25.68-46.97,47.18-76.43,62.99"/>
          <path class="cls-3" d="m679.11,400.57c.28-6.89,1.67-13.45,4.22-19.67,2.85-6.97,6.86-13.06,12.04-18.29,5.17-5.23,11.29-9.37,18.36-12.43,7.08-3.06,14.89-4.59,23.44-4.59,4.71,0,9.18.47,13.44,1.38-18.86,20.2-40.96,37.32-65.5,50.49-1.99,1.06-3.99,2.09-6,3.1"/>
          <path class="cls-3" d="m794.92,404.22c-.16,7.27-1.57,14.18-4.24,20.71-2.85,6.97-6.87,13.07-12.04,18.29-5.17,5.23-11.3,9.37-18.36,12.43-7.08,3.07-14.89,4.6-23.44,4.6s-16.36-1.51-23.43-4.52c-1.86-.79-3.64-1.65-5.36-2.59,7.76-2.52,15.36-5.39,22.76-8.61,23.43-10.2,45-23.86,64.1-40.3"/>
        </g>
      </g>
    </g>
    <g>
      <path class="cls-3" d="m152.62,501.81c2.23-1.88,3.35-3.91,3.35-6.1s-.77-4.01-2.31-5.54c-1.54-1.53-3.39-2.3-5.55-2.3h-7.5v42.23h8.18v-.02c3.64-.06,6.77-1.44,9.4-4.15,2.81-2.92,4.22-6.38,4.22-10.37s-1.41-7.43-4.22-10.27c-1.75-1.92-3.6-3.08-5.57-3.49m-9.63-11.56h5.12c1.58,0,2.91.52,3.99,1.55,1.07,1.03,1.6,2.33,1.6,3.92s-.53,2.87-1.6,3.86c-.94.86-2.06,1.35-3.38,1.47h-5.73v-10.8Zm13.41,33.89c-2.13,2.22-4.66,3.42-7.6,3.62v-.02h-5.81v-24.15h4.93c3.31,0,6.14,1.17,8.48,3.51,2.34,2.34,3.51,5.16,3.51,8.47s-1.17,6.16-3.51,8.58"/>
      <path class="cls-3" d="m195.53,524.8c-2.34,2.34-5.16,3.51-8.47,3.51-3.08,0-5.74-1.02-7.97-3.06l16.89-16.89,1.8-1.8c-.14-.15-.3-.31-.45-.48-.42-.42-.85-.81-1.27-1.16-2.57-2.06-5.57-3.09-9-3.09-3.99,0-7.41,1.42-10.24,4.25-2.83,2.83-4.25,6.25-4.25,10.24s1.42,7.43,4.25,10.27c2.83,2.84,6.25,4.25,10.24,4.25s7.43-1.41,10.27-4.25c.58-.58,1.1-1.18,1.55-1.82l-2.5-.89c-.27.31-.55.62-.85.92m-20.43-8.47c0-3.31,1.17-6.13,3.51-8.46,2.34-2.33,5.16-3.49,8.45-3.49,2.73,0,5.12.78,7.18,2.37l-16.76,16.76c-1.59-2.06-2.38-4.45-2.38-7.18"/>
      <path class="cls-3" d="m236.23,507.85c-.46-.62-.96-1.21-1.51-1.77-2.83-2.83-6.26-4.25-10.27-4.25s-7.41,1.42-10.24,4.25c-2.83,2.83-4.24,6.26-4.24,10.27s1.41,7.41,4.24,10.24c2.83,2.83,6.24,4.25,10.24,4.25s7.43-1.42,10.27-4.25c.54-.57,1.05-1.15,1.51-1.77v5.28h2.38v-25.92h-2.38v3.67Zm0,10.85c-.44,2.31-1.54,4.34-3.3,6.1-2.34,2.34-5.16,3.51-8.47,3.51s-6.13-1.17-8.47-3.5c-2.34-2.33-3.51-5.15-3.51-8.46s1.17-6.13,3.51-8.47c2.34-2.34,5.16-3.51,8.47-3.51s6.13,1.17,8.47,3.51c1.76,1.76,2.86,3.8,3.3,6.12v4.7Z"/>
      <path class="cls-3" d="m270.64,520.13c0,2.2-.8,4.08-2.39,5.63-1.6,1.56-3.48,2.34-5.66,2.34-2.34,0-4.3-.78-5.89-2.35-1.6-1.55-2.4-3.42-2.4-5.62v-15.94h-2.38v16.15c.06,2.92,1.04,5.34,2.96,7.26,1.92,1.92,4.5,2.88,7.73,2.88,3.05,0,5.53-.96,7.45-2.88,1.92-1.91,2.9-4.34,2.96-7.26v-16.15h-2.38v15.94Z"/>
      <polygon class="cls-3" points="292.41 493.15 290.03 493.15 290.03 504.18 284.75 504.18 284.75 506.56 290.03 506.56 290.03 530.1 292.41 530.1 292.41 506.56 297.68 506.56 297.68 504.18 292.41 504.18 292.41 493.15"/>
      <polygon class="cls-3" points="318.74 522.76 310.13 504.18 307.44 504.18 317.56 525.33 310.56 540 312.88 540 318.74 527.77 318.74 527.81 330.01 504.18 327.35 504.18 318.74 522.76"/>
      <path class="cls-3" d="m375.48,504.16c-2.11-.98-3.76-2.07-4.96-3.24-1.29-1.28-1.93-2.83-1.93-4.65s.64-3.38,1.93-4.66c1.28-1.28,2.83-1.91,4.64-1.91s3.36.64,4.65,1.9c.72.72,1.24,1.51,1.56,2.38l2.13-.85c-.37-1.16-1.04-2.21-2.01-3.14-1.76-1.74-3.87-2.61-6.34-2.61s-4.59.87-6.33,2.62c-1.74,1.75-2.62,3.84-2.62,6.27s.88,4.59,2.62,6.34c1.74,1.74,4.12,3.11,7.13,4.12,2.53,1.04,4.67,2.43,6.41,4.17,1.99,1.99,2.99,4.38,2.99,7.18s-1,5.22-2.99,7.21c-1.99,1.99-4.39,2.99-7.21,2.99s-5.19-.99-7.18-2.99c-1.71-1.7-2.68-3.7-2.93-5.99l-2.25.82c.39,2.59,1.56,4.86,3.52,6.81,2.44,2.46,5.39,3.7,8.84,3.7s6.4-1.23,8.84-3.67c2.45-2.45,3.67-5.4,3.67-8.87s-1.22-6.39-3.67-8.81c-2.3-2.31-5.15-4-8.52-5.1"/>
      <path class="cls-3" d="m423.95,507.85c-.46-.62-.96-1.21-1.51-1.77-2.83-2.83-6.25-4.25-10.27-4.25s-7.4,1.42-10.24,4.25c-2.83,2.83-4.25,6.26-4.25,10.27s1.42,7.41,4.25,10.24c2.83,2.83,6.24,4.25,10.24,4.25s7.43-1.42,10.27-4.25c.55-.57,1.05-1.15,1.51-1.77v5.28h2.38v-25.92h-2.38v3.67Zm0,10.85c-.44,2.31-1.54,4.34-3.3,6.1-2.34,2.34-5.16,3.51-8.47,3.51s-6.13-1.17-8.47-3.5c-2.34-2.33-3.51-5.15-3.51-8.46s1.17-6.13,3.51-8.47c2.34-2.34,5.16-3.51,8.47-3.51s6.13,1.17,8.47,3.51c1.76,1.76,2.86,3.8,3.3,6.12v4.7Z"/>
      <rect class="cls-3" x="439.65" y="487.87" width="2.38" height="42.23"/>
      <path class="cls-3" d="m468.25,501.83c-3.99,0-7.4,1.42-10.24,4.25-2.83,2.83-4.25,6.26-4.25,10.27s1.42,7.41,4.25,10.24c2.83,2.83,6.24,4.25,10.24,4.25s7.43-1.42,10.26-4.25c2.82-2.83,4.23-6.25,4.23-10.24s-1.41-7.43-4.23-10.27c-2.83-2.83-6.24-4.25-10.26-4.25m8.48,22.98c-2.34,2.33-5.16,3.5-8.48,3.5s-6.13-1.17-8.47-3.5c-2.34-2.33-3.5-5.15-3.5-8.46s1.17-6.13,3.5-8.47c2.34-2.34,5.16-3.51,8.47-3.51s6.14,1.17,8.48,3.51c2.34,2.34,3.51,5.16,3.51,8.47s-1.17,6.13-3.51,8.46"/>
      <path class="cls-3" d="m504.41,502.63c-2.87,0-5.39,1.07-7.55,3.22v-1.67h-2.37v25.92h2.37v-20.14c.41-.91,1.04-1.8,1.9-2.67,1.59-1.53,3.47-2.3,5.65-2.3s4.07.78,5.66,2.34c1.6,1.55,2.39,3.44,2.39,5.63v17.13h2.37v-17.34c-.05-2.92-1.04-5.34-2.96-7.26-1.91-1.91-4.41-2.88-7.47-2.88"/>
      <path class="cls-3" d="m577.43,511.12c-.9-.51-1.81-.76-2.75-.76-.49,0-.98.07-1.48.21l.02,2.35c.51-.14.99-.21,1.43-.21.61,0,1.17.14,1.66.42.81.48,1.34,1.17,1.59,2.06.09.31.14.62.14.93,0,.56-.15,1.12-.46,1.66-.48.83-1.17,1.36-2.08,1.61-.31.09-.64.13-.96.13-.56,0-1.1-.15-1.63-.44-.48-.27-1.23-.86-2.25-1.8-1.12-1.18-2.04-1.96-2.74-2.35-.72-.42-1.47-.63-2.24-.63-.43,0-.86.06-1.3.18-1.23.34-2.18,1.07-2.83,2.19-.43.74-.64,1.5-.64,2.28,0,.4.06.82.19,1.26.33,1.25,1.03,2.16,2.09,2.75.67.37,1.36.55,2.05.55.44,0,.88-.06,1.32-.18l.24-2.17c-.4.06-.77.09-1.09.09-.57,0-1.03-.09-1.36-.27-.51-.28-.86-.74-1.03-1.37-.07-.23-.11-.45-.11-.66,0-.39.12-.78.35-1.17.32-.56.8-.93,1.43-1.11.22-.05.43-.07.66-.07.38,0,.78.1,1.16.31.35.19.96.68,1.8,1.45,1.26,1.32,2.32,2.22,3.17,2.69.21.12.43.23.66.32-.49,1.44-1.31,2.75-2.48,3.91-1.99,1.99-4.38,2.98-7.18,2.98s-5.22-.99-7.21-2.98c-1.99-1.99-2.98-4.39-2.98-7.21s.96-5.25,2.9-7.36c1.94-2.12,4.83-3.53,8.69-4.25l1.89-.06v-2.22c-1.59-.01-2.91-.23-3.95-.64-1.05-.4-2.21-1.26-3.44-2.59-1.24-1.32-1.86-2.88-1.86-4.7s.64-3.39,1.92-4.66c1.29-1.28,2.84-1.91,4.65-1.91s3.36.63,4.65,1.89c.72.73,1.24,1.52,1.55,2.38l2.14-.85c-.37-1.16-1.04-2.21-2.01-3.14-1.76-1.74-3.87-2.62-6.34-2.62s-4.6.88-6.34,2.63c-1.74,1.75-2.62,3.84-2.62,6.27s.67,4.43,2,5.85c1.33,1.41,2.62,2.39,3.89,2.94-2.64.88-4.79,2.21-6.44,3.99-2.42,2.57-3.62,5.58-3.62,9.03s1.22,6.42,3.66,8.87c2.45,2.44,5.39,3.66,8.85,3.66s6.39-1.23,8.84-3.7c1.51-1.51,2.56-3.22,3.13-5.12.43-.02.86-.09,1.32-.22,1.55-.43,2.71-1.32,3.49-2.69.51-.88.77-1.81.77-2.77,0-.49-.07-1.01-.21-1.53-.43-1.54-1.32-2.69-2.7-3.46"/>
      <path class="cls-3" d="m628.18,501.81c2.23-1.88,3.35-3.91,3.35-6.1s-.77-4.01-2.31-5.54c-1.54-1.53-3.39-2.3-5.56-2.3h-7.5v42.23h8.18v-.02c3.64-.06,6.77-1.44,9.4-4.15,2.81-2.92,4.23-6.38,4.23-10.37s-1.41-7.43-4.23-10.27c-1.74-1.92-3.6-3.08-5.57-3.49m-9.64-11.56h5.12c1.58,0,2.91.52,3.99,1.55,1.07,1.03,1.6,2.33,1.6,3.92s-.53,2.87-1.6,3.86c-.94.86-2.06,1.35-3.38,1.47h-5.73v-10.8Zm13.41,33.89c-2.13,2.22-4.66,3.42-7.6,3.62v-.02h-5.81v-24.15h4.94c3.31,0,6.13,1.17,8.47,3.51,2.34,2.34,3.51,5.16,3.51,8.47s-1.17,6.16-3.51,8.58"/>
      <path class="cls-3" d="m675.31,507.85c-.46-.62-.96-1.21-1.51-1.77-2.83-2.83-6.26-4.25-10.26-4.25s-7.41,1.42-10.24,4.25c-2.83,2.83-4.25,6.26-4.25,10.27s1.42,7.41,4.25,10.24c2.83,2.83,6.24,4.25,10.24,4.25s7.43-1.42,10.26-4.25c.55-.57,1.05-1.15,1.51-1.77v5.28h2.38v-25.92h-2.38v3.67Zm0,10.85c-.44,2.31-1.54,4.34-3.29,6.1-2.34,2.34-5.17,3.51-8.47,3.51s-6.13-1.17-8.48-3.5c-2.34-2.33-3.51-5.15-3.51-8.46s1.17-6.13,3.51-8.47c2.34-2.34,5.16-3.51,8.48-3.51s6.13,1.17,8.47,3.51c1.76,1.76,2.86,3.8,3.29,6.12v4.7Z"/>
      <path class="cls-3" d="m693.38,508.91v-4.73h-2.38v25.92h2.38v-13.38c.09-3.13,1.26-5.82,3.5-8.05,1.6-1.6,3.15-2.44,4.65-2.51v-2.59c-2.2.1-4.34,1.21-6.44,3.3-.65.65-1.22,1.33-1.72,2.03"/>
      <path class="cls-3" d="m726.34,501.83c-4,0-7.4,1.42-10.24,4.25-.56.56-1.06,1.14-1.5,1.74v-19.95h-2.38v42.23h2.38v-5.25c.44.6.94,1.18,1.5,1.75,2.84,2.83,6.24,4.25,10.24,4.25s7.43-1.42,10.25-4.25c2.83-2.83,4.24-6.25,4.24-10.24s-1.41-7.43-4.24-10.27c-2.83-2.83-6.24-4.25-10.25-4.25m8.47,22.98c-2.34,2.33-5.16,3.5-8.47,3.5s-6.13-1.17-8.47-3.51c-1.72-1.73-2.81-3.71-3.27-5.97v-4.96c.46-2.27,1.55-4.27,3.27-5.99,2.34-2.34,5.16-3.51,8.47-3.51s6.13,1.17,8.47,3.51c2.34,2.34,3.51,5.16,3.51,8.47s-1.17,6.13-3.51,8.46"/>
      <path class="cls-3" d="m774.88,524.8c-2.34,2.34-5.16,3.51-8.48,3.51-3.08,0-5.73-1.02-7.97-3.06l16.89-16.89,1.8-1.8c-.14-.15-.29-.31-.44-.48-.43-.42-.85-.81-1.28-1.16-2.57-2.06-5.57-3.09-9-3.09-3.99,0-7.41,1.42-10.24,4.25-2.83,2.83-4.24,6.25-4.24,10.24s1.41,7.43,4.24,10.27c2.83,2.84,6.25,4.25,10.24,4.25s7.43-1.41,10.27-4.25c.57-.58,1.09-1.18,1.55-1.82l-2.5-.89c-.27.31-.55.62-.84.92m-20.43-8.47c0-3.31,1.17-6.13,3.51-8.46,2.34-2.33,5.16-3.49,8.45-3.49,2.73,0,5.12.78,7.18,2.37l-16.76,16.76c-1.59-2.06-2.38-4.45-2.38-7.18"/>
      <path class="cls-3" d="m792.34,508.91v-4.73h-2.38v25.92h2.38v-13.38c.09-3.13,1.25-5.82,3.5-8.05,1.6-1.6,3.15-2.44,4.65-2.51v-2.59c-2.2.1-4.34,1.21-6.44,3.3-.65.65-1.22,1.33-1.71,2.03"/>
      <path class="cls-3" d="m819.1,514.32c-1.43-.9-2.36-1.56-2.8-2-.75-.75-1.14-1.66-1.14-2.72s.38-1.98,1.14-2.73c.76-.75,1.66-1.12,2.71-1.12s1.94.33,2.6,1c.66.67,1.08,1.67,1.25,3.01l2.06-.82v-.13c0-1.41-.55-2.67-1.63-3.77-1.13-1.13-2.55-1.69-4.28-1.69s-3.16.61-4.38,1.83c-1.21,1.22-1.82,2.7-1.82,4.42s.61,3.17,1.82,4.39c.78.77,2.18,1.7,4.2,2.79,1.7,1.09,2.84,1.92,3.41,2.48,1.04,1.04,1.55,2.29,1.55,3.75s-.52,2.76-1.57,3.79c-1.05,1.04-2.3,1.56-3.77,1.56s-2.71-.52-3.76-1.56c-1.05-1.04-1.57-2.33-1.57-3.87l-2.35.6c0,1.8.75,3.44,2.25,4.95,1.49,1.51,3.31,2.26,5.43,2.26s3.95-.75,5.44-2.26c1.5-1.51,2.25-3.33,2.25-5.47s-.75-3.9-2.25-5.41c-.95-.96-2.55-2.04-4.8-3.28"/>
      <path class="cls-3" d="m847.89,502.63c-2.82,0-5.23.97-7.24,2.91v-17.66h-2.38v42.23h2.38v-20.61c.36-.75.88-1.48,1.59-2.19,1.59-1.53,3.47-2.3,5.65-2.3s4.07.78,5.66,2.34c1.6,1.55,2.39,3.44,2.39,5.63v17.13h2.37v-17.34c-.05-2.92-1.04-5.34-2.96-7.26-1.92-1.91-4.41-2.88-7.47-2.88"/>
      <path class="cls-3" d="m884.54,501.83c-4,0-7.4,1.42-10.24,4.25-2.84,2.83-4.26,6.26-4.26,10.27s1.42,7.41,4.26,10.24c2.83,2.83,6.24,4.25,10.24,4.25s7.43-1.42,10.25-4.25c2.83-2.83,4.24-6.25,4.24-10.24s-1.41-7.43-4.24-10.27c-2.83-2.83-6.24-4.25-10.25-4.25m8.47,22.98c-2.34,2.33-5.16,3.5-8.47,3.5s-6.13-1.17-8.47-3.5c-2.34-2.33-3.5-5.15-3.5-8.46s1.17-6.13,3.5-8.47c2.34-2.34,5.16-3.51,8.47-3.51s6.13,1.17,8.47,3.51c2.34,2.34,3.51,5.16,3.51,8.47s-1.17,6.13-3.51,8.46"/>
      <path class="cls-3" d="m935.14,506.1c-2.83-2.83-6.24-4.24-10.25-4.24s-7.4,1.41-10.24,4.23c-.56.56-1.06,1.14-1.5,1.74v-3.64h-2.38v35.82h2.38v-15.15c.44.6.94,1.18,1.5,1.75,2.84,2.83,6.24,4.25,10.24,4.25s7.43-1.42,10.25-4.25c2.83-2.83,4.24-6.25,4.24-10.24s-1.41-7.43-4.24-10.25m-1.78,18.73c-2.34,2.34-5.16,3.51-8.47,3.51s-6.13-1.17-8.47-3.51c-1.72-1.72-2.81-3.72-3.27-5.99v-4.96c.46-2.27,1.55-4.27,3.27-5.99,2.34-2.34,5.16-3.51,8.47-3.51s6.13,1.17,8.47,3.51c2.34,2.34,3.51,5.16,3.51,8.47s-1.17,6.13-3.51,8.47"/>
    </g>
  </g>
</svg>