<?xml version="1.0" encoding="UTF-8"?>
<svg id="Layer_1" data-name="Layer 1" xmlns="http://www.w3.org/2000/svg" viewBox="0 0 1080 540">
  <defs>
    <style>
      .cls-1 {
        fill: #256e9e;
      }

      .cls-2 {
        fill: #151346;
      }

      .cls-3 {
        fill: #1da844;
      }

      .cls-4 {
        fill: none;
      }
    </style>
  </defs>
  <rect class="cls-4" width="1080" height="540"/>
  <g>
    <g>
      <g>
        <g>
          <path class="cls-3" d="m589.64,287.47h0c-11.08,11.08-29.04,11.09-40.12,0l-41.06-41.06,53.01-53.02h0c11.08,11.08,11.08,29.05,0,40.14l-12.88,12.88,41.06,41.05Z"/>
          <path class="cls-3" d="m508.53,160.21c0-15.51-12.57-28.08-28.08-28.08v122.1l28.08-28.08v-65.94Z"/>
          <path class="cls-3" d="m480.45,274.43v21.35c15.51,0,28.08-12.57,28.08-28.08v-21.35l-28.08,28.08Z"/>
        </g>
        <path class="cls-3" d="m823.62,160.2v29.75h-24.78c-29.47,0-54.12,23.36-54.62,52.82-.5,30.1,23.75,54.66,53.73,54.66,9.29,0,18.04-2.36,25.67-6.52,16.72-9.1,28.07-26.83,28.07-47.22v-111.56h0c-15.5,0-28.07,12.57-28.07,28.07Zm-23.58,109.08c-15.81,1.25-28.92-11.86-27.67-27.67.98-12.44,11.06-22.52,23.5-23.5,15.81-1.25,28.92,11.86,27.67,27.67-.98,12.44-11.06,22.52-23.5,23.5Z"/>
        <path class="cls-3" d="m620.49,160.21v135.58h0c-15.51,0-28.08-12.57-28.08-28.08v-135.58h0c15.51,0,28.08,12.57,28.08,28.08Z"/>
      </g>
      <path class="cls-3" d="m309.18,189.95c-29.68,0-53.74,24.06-53.74,53.74s24.06,53.74,53.74,53.74,53.74-24.06,53.74-53.74-24.06-53.74-53.74-53.74Zm0,79.41c-14.18,0-25.67-11.49-25.67-25.67s11.49-25.67,25.67-25.67,25.67,11.49,25.67,25.67-11.49,25.67-25.67,25.67Z"/>
      <path class="cls-3" d="m937.8,196.58c-7.88-4.29-16.93-6.67-26.56-6.51-28.32.46-51.72,23.32-52.81,51.62-1.17,30.64,23.32,55.85,53.7,55.85,9.29,0,18.04-2.36,25.67-6.52h0c0,20.03-16.24,36.27-36.27,36.27h-15.05c-15.51,0-28.08,12.57-28.08,28.08h0s43.16,0,43.16,0c35.52,0,64.31-28.79,64.31-64.31v-47.26c0-20.39-11.35-38.12-28.07-47.22Zm-23.58,72.81c-15.81,1.25-28.92-11.86-27.67-27.67.98-12.44,11.06-22.52,23.5-23.5,15.81-1.25,28.92,11.86,27.67,27.67-.98,12.44-11.06,22.52-23.5,23.5Z"/>
      <path class="cls-3" d="m231.23,189.51c-10.26,0-19.31,4.73-24.79,11.96-5.08-7.23-13.48-11.96-22.99-11.96v107.93c15.51,0,28.08-12.57,28.08-28.08v-26.59c0-13.9,11.27-25.17,25.17-25.17h.81c15.51,0,28.08-12.57,28.08-28.08h0s-34.37,0-34.37,0Z"/>
      <path class="cls-3" d="m437.24,264.34c-4.7,3.48-10.64,5.39-17.03,4.96-12.72-.86-23.04-11.23-23.83-23.96-.93-14.92,10.89-27.32,25.61-27.32,6.19,0,11.87,2.19,16.3,5.85,4.61,3.8,10.45,5.78,16.43,5.78h19.15c-6.32-23.39-28.01-40.46-53.57-39.67-28.01.86-50.94,23.61-52.01,51.61-1.17,30.64,23.32,55.84,53.7,55.84,24.82,0,45.7-16.83,51.88-39.7h-15.72c-7.48,0-14.89,2.15-20.91,6.6Z"/>
      <path class="cls-3" d="m660.61,255.32h75.36c.83-3.75,1.26-7.63,1.26-11.62,0-.81-.02-1.62-.06-2.41-.2-4.88-1.07-9.58-2.5-14.04-6.94-21.64-27.23-37.3-51.18-37.3-9.29,0-18.05,2.36-25.67,6.52-12.02,6.54-21.27,17.55-25.51,30.78-1.43,4.46-2.3,9.16-2.5,14.04-.04.79-.06,1.6-.06,2.41,0,20.39,11.35,38.12,28.07,47.22,7.63,4.16,16.37,6.52,25.67,6.52h53.74c0-15.51-12.57-28.08-28.08-28.08h-25.66c-9.98,0-18.64-5.71-22.88-14.04Zm-2.78-11.63c0-.8.04-1.61.12-2.4.49-5.31,2.6-10.16,5.84-14.04,4.71-5.63,11.79-9.22,19.71-9.22s15,3.59,19.71,9.22h-17.31c-13.47,0-24.73,9.49-27.44,22.14-.41-1.83-.64-3.75-.64-5.71Z"/>
      <path class="cls-3" d="m1003.38,255.32h75.36c.83-3.75,1.26-7.63,1.26-11.62,0-.81-.02-1.62-.06-2.41-.2-4.88-1.07-9.58-2.5-14.04-6.94-21.64-27.23-37.3-51.18-37.3-9.29,0-18.05,2.36-25.67,6.52-12.02,6.54-21.27,17.55-25.51,30.78-1.43,4.46-2.3,9.16-2.5,14.04-.04.79-.06,1.6-.06,2.41,0,20.39,11.35,38.12,28.07,47.22,7.63,4.16,16.37,6.52,25.67,6.52h53.74c0-15.51-12.57-28.08-28.08-28.08h-25.66c-9.98,0-18.64-5.71-22.88-14.04Zm-2.78-11.63c0-.8.04-1.61.12-2.4.49-5.31,2.6-10.16,5.84-14.04,4.71-5.63,11.79-9.22,19.71-9.22s15,3.59,19.71,9.22h-17.31c-13.47,0-24.73,9.49-27.44,22.14-.41-1.83-.64-3.75-.64-5.71Z"/>
    </g>
    <g>
      <path class="cls-1" d="m168.64,343.9c-50.18,0-90.85-40.68-90.85-90.85,0-36.1,21.05-67.28,51.55-81.93-39.11,10.14-68,45.67-68,87.95,0,50.18,40.68,90.85,90.85,90.85,14.08,0,27.41-3.2,39.3-8.92-7.3,1.89-14.96,2.9-22.86,2.9Z"/>
      <path class="cls-2" d="m150.24,362.54c-70.26,0-127.22-56.96-127.22-127.22,0-50.55,29.48-94.21,72.18-114.73C40.45,134.79,0,184.54,0,243.75c0,70.26,56.96,127.22,127.22,127.22,19.71,0,38.38-4.49,55.03-12.49-10.23,2.65-20.95,4.06-32,4.06Z"/>
      <path class="cls-3" d="m57.64,365.91s60.14,54.24,190.5-17.96c99.47-55.09,174.51-5.31,174.51-5.31,0,0-62.12-19.37-155.98,32.91-140.08,78.01-209.03-9.64-209.03-9.64Z"/>
      <path class="cls-1" d="m166.12,415.62s41.52,4.75,110.42-35.26c78.06-45.32,146.02-31.33,146.02-31.33,0,0-58.56,3.74-118.46,39.04-78.71,46.38-137.98,27.54-137.98,27.54Z"/>
    </g>
  </g>
</svg>